<svg xmlns="http://www.w3.org/2000/svg" data-name="Layer 1" viewBox="0 0 630 400"><path fill="#4495d1" d="M352.87 58.46l1.85-3.7h-81.86l1.84 3.7zm7.13-42.3h-92.4v37.06H360z"/><path fill="#ed7d31" d="M330.64 23.07h24.05V45.9h-24.06z"/><path fill="#fff" d="M284.5 28.4H278v3.1h1.7v1.63h3.1V31.5h1.7zm10.45 0h-6.5v3.1h1.7v1.63h3.1V31.5H295zm10.44 0h-6.5v3.1h1.68v1.63h3.12V31.5h1.7zm10.43 0h-6.5v3.1H311v1.63h3.12V31.5h1.7zm0 7.5h-6.5V39H311v1.63h3.12V39h1.7zm-10.44 0h-6.5V39h1.68v1.63h3.12V39h1.7zm-10.45 0h-6.5V39h1.7v1.63h3.1V39H295zm-10.44 0H278V39h1.7v1.63h3.1V39h1.7zM342.2 42.15l-1.62-1.64v1.92l2.3 2.14 2.33-2.13V40.5l-1.6 1.64V36.5h-1.38zm5.42-8.35l1.64-1.63h-1.9l-2.14 2.3 2.12 2.33h1.93l-1.63-1.62h5.62V33.8zm-4.05-7l1.63 1.65v-1.9l-2.32-2.14-2.3 2.14v1.93l1.6-1.64v5.62h1.4zm-5.4 8.36l-1.65 1.63h1.9l2.14-2.33-2.12-2.3h-1.94l1.63 1.6h-5.62v1.38z"/><path fill="#4495d1" d="M373.85 169.65l2.84-5.68H251l2.84 5.68zm-131-8.4H384.8v-37.5H242.87z"/><path fill="#ed7d31" d="M352.35 131.07h24.33v23.1h-24.33z"/><path fill="#fff" d="M264.1 144.63h-10v4.78h2.6v2.5h4.8v-2.5h2.6zm16 0h-10v4.78h2.6v2.5h4.8v-2.5h2.6zm16 0h-10v4.78h2.6v2.5h4.8v-2.5h2.6zm16 0h-10v4.78h2.6v2.5h4.8v-2.5h2.6zm16 0h-10v4.78h2.6v2.5h4.8v-2.5h2.6zm0-11.56h-10v4.78h2.6v2.5h4.8v-2.5h2.6zm-16 0h-10v4.78h2.6v2.5h4.8v-2.5h2.6zm-16 0h-10v4.78h2.6v2.5h4.8v-2.5h2.6zm-16 0h-10v4.78h2.6v2.5h4.8v-2.5h2.6zm-16 0h-10v4.78h2.6v2.5h4.8v-2.5h2.6zM365.63 142.1l3-3.93h3.43l-1.77 1.76h2.05l2.32-2.5-2.3-2.5h-2.07l1.77 1.75h-4.48l-3.08 4-3.06-4H357l1.77-1.75h-2.1l-2.3 2.5 2.32 2.5h2.06l-1.78-1.76h3.43l3 3.92-3.84 5h-2.6l1.77-1.78h-2.07l-2.3 2.5 2.28 2.5h2.1l-1.74-1.75h3.66l3.9-5 3.88 5h3.67l-1.76 1.76h2.08l2.3-2.5-2.3-2.5h-2.07l1.77 1.76h-2.6z"/><path fill="#ed7d31" d="M309.83 69.88l4.1-8.2 4.1 8.2h-8.2"/><path fill="#4495d1" d="M407.14 277v-2.56H420a4.3 4.3 0 0 1 4.3 4.3v2.58h-12.85a4.32 4.32 0 0 1-4.3-4.32zM407.14 292v-2.55H420a4.3 4.3 0 0 1 4.3 4.3v2.57h-12.85a4.32 4.32 0 0 1-4.3-4.32zM407.14 306v-2.56H420a4.3 4.3 0 0 1 4.3 4.3v2.58h-12.85a4.32 4.32 0 0 1-4.3-4.32z"/><path fill="#4495d1" d="M425.37 266.24h-47.43v76.52a8.38 8.38 0 0 0 8.36 8.37h47.43V274.6a8.37 8.37 0 0 0-8.36-8.36zm1.63 46.6h-39.5a4.3 4.3 0 0 1-4.3-4.32v-7.24h39.48a4.33 4.33 0 0 1 4.32 4.32zm0-14.4h-39.5a4.32 4.32 0 0 1-4.3-4.3v-7.24h39.48a4.32 4.32 0 0 1 4.32 4.32zm0-14.22h-39.5a4.32 4.32 0 0 1-4.3-4.32v-7.23h39.48A4.32 4.32 0 0 1 427 277z"/><path fill="#fff" d="M431.67 263.1h73.65v64.44h-73.65z"/><path fill="#4394d1" d="M446.1 345.85a5 5 0 0 1 5-5h39.58v5.27a5 5 0 0 1-5 5H446.1z"/><path fill="#4394d1" d="M467.18 346.3a3.75 3.75 0 0 1-3.74-3.76v-17.2h7.26a3.74 3.74 0 0 1 3.74 3.74v17.2z"/><path fill="#4394d1" d="M439.76 332.4c-6.4 0-11.63-4.7-11.63-10.47V261.6h70c6.4 0 11.63 4.7 11.63 10.47v60.34zm-3.9-63.06v52.6c0 1.45 1.83 2.73 3.9 2.73H502v-52.6c0-1.45-1.82-2.73-3.9-2.73z"/><path fill="#fff" d="M498.12 261.6c6.4 0 11.64 4.7 11.64 10.48v60.33h-70c-6.4 0-11.63-4.68-11.63-10.47V261.6zm-58.36 63.07H502v-52.6c0-1.45-1.83-2.73-3.9-2.73h-62.23v52.6c0 1.45 1.82 2.73 3.9 2.73zm58.36-65.94h-72.88v63.2c0 7.38 6.52 13.38 14.52 13.38h72.88V272.1c0-7.37-6.5-13.35-14.52-13.35zm-59.38 13.5h59.38a2 2 0 0 1 1 .26v49.28h-59.36a2 2 0 0 1-1-.26z"/><path fill="#4495d1" d="M146.56 275.53V273h12.88a4.3 4.3 0 0 1 4.3 4.3v2.58h-12.87a4.32 4.32 0 0 1-4.3-4.35zM146.56 290.56V288h12.88a4.3 4.3 0 0 1 4.3 4.3v2.57h-12.87a4.32 4.32 0 0 1-4.3-4.3zM146.56 304.5v-2.55h12.88a4.3 4.3 0 0 1 4.3 4.3v2.58h-12.87a4.32 4.32 0 0 1-4.3-4.32z"/><path fill="#4495d1" d="M164.8 264.76h-47.44v76.52a8.38 8.38 0 0 0 8.36 8.37h47.43v-76.53a8.37 8.37 0 0 0-8.36-8.36zm1.6 46.6h-39.5a4.3 4.3 0 0 1-4.3-4.32v-7.24h39.48a4.33 4.33 0 0 1 4.32 4.32zm0-14.4h-39.5a4.32 4.32 0 0 1-4.3-4.3v-7.24h39.48a4.32 4.32 0 0 1 4.32 4.32zm0-14.22h-39.5a4.32 4.32 0 0 1-4.3-4.32v-7.22h39.48a4.32 4.32 0 0 1 4.32 4.3z"/><path fill="#fff" d="M171.08 261.63h73.65v64.44h-73.65z"/><path fill="#4394d1" d="M185.52 344.37a5 5 0 0 1 5-5h39.58v5.27a5 5 0 0 1-5 5h-39.58z"/><path fill="#4394d1" d="M206.6 344.82a3.75 3.75 0 0 1-3.75-3.75v-17.2h7.26a3.74 3.74 0 0 1 3.75 3.74v17.22z"/><path fill="#4394d1" d="M179.17 330.94c-6.4 0-11.63-4.7-11.63-10.48v-60.33h70c6.4 0 11.63 4.7 11.63 10.47v60.34zm-3.9-63.07v52.6c0 1.45 1.83 2.73 3.9 2.73h62.26v-52.6c0-1.45-1.82-2.73-3.9-2.73z"/><path fill="#fff" d="M237.54 260.13c6.4 0 11.64 4.7 11.64 10.48v60.34h-70c-6.4 0-11.63-4.7-11.63-10.48v-60.33zm-58.36 63.07h62.26v-52.6c0-1.45-1.83-2.73-3.9-2.73H175.3v52.6c0 1.44 1.8 2.72 3.88 2.72zm58.36-65.94h-72.88v63.2c0 7.38 6.52 13.38 14.52 13.38h72.88V270.6c0-7.36-6.5-13.35-14.52-13.35zm-59.38 13.5h59.38a2 2 0 0 1 1 .26v49.3h-59.36a2 2 0 0 1-1-.27z"/><path fill="#ed7d31" d="M303.26 181.3l4.1-8.2 4.1 8.2h-8.2M315.8 181.24l4.1-8.2 4.1 8.2h-8.2" data-name="lend4"/><path fill="#ed7d31" d="M313.43 69.88h1V121h-1zM307.86 300.6h-53.73v-1h52.73V181.23h1V300.6M373.1 300.6h-53.7V181.23h1V299.6h52.7v1"/><path fill="#fff" d="M267.63 82h92.4v21.34h-92.4zM267.63 194.94h92.4v21.33h-92.4z"/><path fill="#526071" d="M295.45 95.45V86.3h2.86a5.93 5.93 0 0 1 1.3.12 2.75 2.75 0 0 1 1 .44 2.1 2.1 0 0 1 .66.8 2.73 2.73 0 0 1 .24 1.2 2.53 2.53 0 0 1-.56 1.72 2.85 2.85 0 0 1-1.5.88l2.32 4h-1.3l-2.22-3.87h-1.66v3.86zm1.16-4.82h1.55a2.67 2.67 0 0 0 1.65-.44 1.58 1.58 0 0 0 .57-1.34 1.4 1.4 0 0 0-.57-1.27 3.1 3.1 0 0 0-1.65-.37h-1.54zM305.8 95.62a3.05 3.05 0 0 1-1.2-.24 2.94 2.94 0 0 1-1-.7 3.36 3.36 0 0 1-.7-1.1 4.54 4.54 0 0 1 0-3 3.45 3.45 0 0 1 .7-1.13 2.9 2.9 0 0 1 1-.7 3.12 3.12 0 0 1 2.4 0 2.9 2.9 0 0 1 1 .7 3.46 3.46 0 0 1 .68 1.13 4.53 4.53 0 0 1 0 3 3.37 3.37 0 0 1-.7 1.12 2.94 2.94 0 0 1-1 .7 3.06 3.06 0 0 1-1.2.22zm0-.95a1.7 1.7 0 0 0 .8-.2 1.82 1.82 0 0 0 .6-.52 2.52 2.52 0 0 0 .4-.82 3.75 3.75 0 0 0 .15-1.06 3.83 3.83 0 0 0-.15-1.07 2.6 2.6 0 0 0-.4-.83 1.8 1.8 0 0 0-.62-.54 1.78 1.78 0 0 0-1.6 0 1.8 1.8 0 0 0-.6.54 2.6 2.6 0 0 0-.4.83 3.83 3.83 0 0 0-.15 1.07 3.75 3.75 0 0 0 .14 1.06 2.52 2.52 0 0 0 .4.82 1.82 1.82 0 0 0 .62.53 1.7 1.7 0 0 0 .8.2zM312.7 95.62a1.84 1.84 0 0 1-1.6-.67 3.3 3.3 0 0 1-.5-2v-4.3h1.17v4.15a2.47 2.47 0 0 0 .3 1.4 1.1 1.1 0 0 0 1 .42 1.64 1.64 0 0 0 .94-.27 4.4 4.4 0 0 0 .9-.87v-4.82h1.1v6.8h-1l-.1-1.07a4.52 4.52 0 0 1-1 .88 2.25 2.25 0 0 1-1.2.34zM320.46 95.62a2.2 2.2 0 0 1-.92-.17 1.58 1.58 0 0 1-.6-.46 1.8 1.8 0 0 1-.33-.72 4.05 4.05 0 0 1-.1-.92V89.6h-1v-.87l1.07-.07.14-1.9h1v1.9h1.84v.94h-1.83v3.77a1.72 1.72 0 0 0 .24 1 .9.9 0 0 0 .82.34 1.53 1.53 0 0 0 .4-.05l.37-.13.22.87a5.9 5.9 0 0 1-.6.16 2.84 2.84 0 0 1-.7.06zM325.6 95.62a3.33 3.33 0 0 1-1.28-.24 3 3 0 0 1-1-.7 3.24 3.24 0 0 1-.7-1.1 4.15 4.15 0 0 1-.24-1.5 4.1 4.1 0 0 1 .26-1.5 3.5 3.5 0 0 1 .68-1.12 3 3 0 0 1 1-.7 2.73 2.73 0 0 1 1.13-.25 2.84 2.84 0 0 1 1.15.23 2.25 2.25 0 0 1 .85.64 2.94 2.94 0 0 1 .52 1 4.43 4.43 0 0 1 .18 1.3v.37a1.75 1.75 0 0 1 0 .3h-4.58a2.65 2.65 0 0 0 .68 1.73 2.1 2.1 0 0 0 1.6.64 2.67 2.67 0 0 0 .9-.14 4 4 0 0 0 .78-.38l.4.75a5.8 5.8 0 0 1-1 .5 3.45 3.45 0 0 1-1.33.2zm-2.14-4.1h3.63a2.43 2.43 0 0 0-.45-1.58 1.5 1.5 0 0 0-1.24-.54 1.76 1.76 0 0 0-.68.14 1.83 1.83 0 0 0-.6.4 2.26 2.26 0 0 0-.43.67 3 3 0 0 0-.24.9zM329.78 95.45v-6.8h1l.1 1.24a3.14 3.14 0 0 1 .84-1 1.75 1.75 0 0 1 1.08-.4 1.82 1.82 0 0 1 .73.15l-.22 1-.3-.08a1.82 1.82 0 0 0-.35 0 1.52 1.52 0 0 0-.9.35 2.77 2.77 0 0 0-.82 1.22v4.36zM297.92 210.3a4.4 4.4 0 0 1-3.2-1.37l.7-.8a3.8 3.8 0 0 0 1.14.82 3.17 3.17 0 0 0 1.38.3 2.17 2.17 0 0 0 1.4-.4 1.33 1.33 0 0 0 .5-1.08 1.35 1.35 0 0 0-.1-.6 1.3 1.3 0 0 0-.33-.4 2.34 2.34 0 0 0-.47-.32l-.6-.3-1.3-.56a6.1 6.1 0 0 1-.67-.35 2.67 2.67 0 0 1-.6-.47 2.27 2.27 0 0 1-.43-.66 2.2 2.2 0 0 1-.17-.9 2.18 2.18 0 0 1 .22-1 2.36 2.36 0 0 1 .6-.77 2.8 2.8 0 0 1 .9-.5 3.5 3.5 0 0 1 1.16-.2 3.67 3.67 0 0 1 1.52.32 3.8 3.8 0 0 1 1.2.82l-.64.74a3.3 3.3 0 0 0-.93-.64 2.78 2.78 0 0 0-1.16-.23 2 2 0 0 0-1.24.36 1.17 1.17 0 0 0-.47 1 1.12 1.12 0 0 0 .13.57 1.4 1.4 0 0 0 .36.4 2.92 2.92 0 0 0 .5.32l.53.24 1.3.56a5.6 5.6 0 0 1 .74.38 2.65 2.65 0 0 1 .6.5 2.18 2.18 0 0 1 .4.67 2.47 2.47 0 0 1 .14.9 2.42 2.42 0 0 1-.22 1 2.46 2.46 0 0 1-.62.82 3 3 0 0 1-1 .55 3.9 3.9 0 0 1-1.28.24zM303.8 210.13l-1.9-6.8h1.18l1 3.94.2.95.2.94h.07l.22-.94q.1-.47.24-.94l1-3.93h1.13l1.06 3.93.23.95.23.94h.06l.2-.94c.08-.3.15-.62.22-.95l1-3.93h1.1l-1.83 6.8H308l-1-3.66-.22-1-.23-1h-.06q-.12.5-.23 1t-.25 1l-1 3.62zM313.35 201.94a.8.8 0 0 1-.57-.2.73.73 0 0 1 0-1.08.9.9 0 0 1 1.13 0 .73.73 0 0 1 0 1.07.8.8 0 0 1-.55.2zm-.6 8.2v-6.8h1.16v6.8zM318.33 210.3a2.22 2.22 0 0 1-.92-.18 1.57 1.57 0 0 1-.6-.46 1.8 1.8 0 0 1-.32-.7 4.05 4.05 0 0 1-.1-.93v-3.76h-1v-.87l1.06-.07.14-1.9h1v1.9h1.83v.94h-1.82V208a1.73 1.73 0 0 0 .23 1 .9.9 0 0 0 .83.34 1.54 1.54 0 0 0 .4-.06l.37-.13.22.87a6.06 6.06 0 0 1-.6.17 2.87 2.87 0 0 1-.7.1zM323.4 210.3a3.3 3.3 0 0 1-1.25-.25 2.82 2.82 0 0 1-1-.7 3.24 3.24 0 0 1-.67-1.1 4.32 4.32 0 0 1-.24-1.5 4 4 0 0 1 .27-1.53 3.42 3.42 0 0 1 .72-1.12 3 3 0 0 1 1-.7 3.34 3.34 0 0 1 1.25-.24 2.55 2.55 0 0 1 1.15.24 3.88 3.88 0 0 1 .84.56l-.6.75a2.9 2.9 0 0 0-.6-.42 1.6 1.6 0 0 0-.74-.17 1.9 1.9 0 0 0-1.52.74 2.66 2.66 0 0 0-.44.83 3.38 3.38 0 0 0-.16 1.07 3.43 3.43 0 0 0 .15 1.06 2.56 2.56 0 0 0 .43.82 1.88 1.88 0 0 0 .66.53 2 2 0 0 0 .85.2 1.9 1.9 0 0 0 .86-.2 3.52 3.52 0 0 0 .72-.5l.5.78a3.66 3.66 0 0 1-1 .64 3.05 3.05 0 0 1-1.17.22zM327.1 210.13v-9.95h1.14v4.1a6.35 6.35 0 0 1 1-.78 2.32 2.32 0 0 1 1.24-.33 1.82 1.82 0 0 1 1.57.67 3.3 3.3 0 0 1 .5 2v4.3h-1.15V206a2.43 2.43 0 0 0-.3-1.4 1.12 1.12 0 0 0-1-.42 1.67 1.67 0 0 0-.95.26 6.1 6.1 0 0 0-.92.78v4.92zM413.1 380.7l-1.94-9.18h1.2l1 5q.13.75.27 1.48t.27 1.48h.06q.15-.75.32-1.5t.32-1.46l1.27-5h1.06l1.27 5 .34 1.47.33 1.48h.06l.25-1.5.27-1.46 1-5h1.12l-1.9 9.17h-1.4l-1.38-5.53q-.14-.53-.24-1l-.22-1h-.06q-.1.53-.23 1t-.23 1l-1.36 5.52zM425.6 380.85a3 3 0 0 1-1.2-.24 2.93 2.93 0 0 1-1-.68 3.34 3.34 0 0 1-.68-1.12 4.53 4.53 0 0 1 0-3 3.44 3.44 0 0 1 .7-1.12 2.88 2.88 0 0 1 1-.7 3.12 3.12 0 0 1 2.38 0 2.9 2.9 0 0 1 1 .7 3.46 3.46 0 0 1 .7 1.13 4.53 4.53 0 0 1 0 3 3.36 3.36 0 0 1-.7 1.13 3 3 0 0 1-1 .7 3 3 0 0 1-1.2.22zm0-1a1.7 1.7 0 0 0 .8-.2 1.84 1.84 0 0 0 .62-.52 2.53 2.53 0 0 0 .4-.82 3.77 3.77 0 0 0 .14-1.05 3.84 3.84 0 0 0-.14-1.07 2.63 2.63 0 0 0-.4-.83 1.8 1.8 0 0 0-.62-.54 1.77 1.77 0 0 0-1.6 0 1.8 1.8 0 0 0-.6.55 2.6 2.6 0 0 0-.4.83 3.84 3.84 0 0 0-.15 1.07 3.77 3.77 0 0 0 .14 1.06 2.5 2.5 0 0 0 .4.83 1.82 1.82 0 0 0 .6.53 1.7 1.7 0 0 0 .8.24zM430.53 380.7v-6.8h1l.1 1.23a3.14 3.14 0 0 1 .84-1 1.75 1.75 0 0 1 1.08-.38 1.8 1.8 0 0 1 .73.14l-.22 1-.3-.1a1.82 1.82 0 0 0-.36 0 1.53 1.53 0 0 0-.9.36 2.77 2.77 0 0 0-.82 1.22v4.36zM435.38 380.7v-9.96h1.13v6.73l2.9-3.58h1.27l-2.28 2.7 2.57 4.08h-1.26l-2-3.27-1.26 1.5v1.78zM444.07 380.85a3.66 3.66 0 0 1-1.38-.27 4.27 4.27 0 0 1-1.16-.67l.57-.76a4.58 4.58 0 0 0 .93.6 2.48 2.48 0 0 0 1.08.2 1.44 1.44 0 0 0 1-.3 1 1 0 0 0 .34-.75.77.77 0 0 0-.14-.47 1.37 1.37 0 0 0-.36-.34 2.62 2.62 0 0 0-.5-.27l-.56-.22q-.36-.12-.73-.28a2.9 2.9 0 0 1-.65-.4 2 2 0 0 1-.47-.53 1.43 1.43 0 0 1-.18-.75 1.84 1.84 0 0 1 .16-.76 1.74 1.74 0 0 1 .47-.62 2.17 2.17 0 0 1 .73-.4 3.28 3.28 0 0 1 2.16.07 3.66 3.66 0 0 1 .93.54l-.55.72a3.6 3.6 0 0 0-.73-.43 2 2 0 0 0-.82-.18 1.3 1.3 0 0 0-.94.3.92.92 0 0 0-.3.67.7.7 0 0 0 .13.4 1.2 1.2 0 0 0 .32.3 2.74 2.74 0 0 0 .48.25l.57.22.73.3a2.84 2.84 0 0 1 .66.37 1.9 1.9 0 0 1 .48.57 1.62 1.62 0 0 1 .2.82 1.92 1.92 0 0 1-.17.78 1.86 1.86 0 0 1-.48.64 2.26 2.26 0 0 1-.8.44 3.27 3.27 0 0 1-1.03.17zM450 380.85a2.22 2.22 0 0 1-.92-.17 1.57 1.57 0 0 1-.6-.46 1.78 1.78 0 0 1-.33-.7 4 4 0 0 1-.1-.93v-3.77h-1V374l1.06-.07.15-1.9h1v1.9h1.83v.94h-1.83v3.77a1.73 1.73 0 0 0 .23 1 .9.9 0 0 0 .82.34 1.52 1.52 0 0 0 .4-.06l.37-.13.22.86a6 6 0 0 1-.62.17 2.87 2.87 0 0 1-.68.02zM453.86 380.85a2.06 2.06 0 0 1-1.42-.5 1.8 1.8 0 0 1-.57-1.43 1.88 1.88 0 0 1 1-1.7 8.2 8.2 0 0 1 3.17-.84 3.12 3.12 0 0 0-.06-.63 1.57 1.57 0 0 0-.22-.54 1.14 1.14 0 0 0-.43-.37 1.45 1.45 0 0 0-.7-.15 2.76 2.76 0 0 0-1.1.22 5.47 5.47 0 0 0-.9.5l-.46-.8a7.32 7.32 0 0 1 1.16-.6 3.88 3.88 0 0 1 1.5-.28 2.1 2.1 0 0 1 1.8.76 3.36 3.36 0 0 1 .57 2v4.16h-.95l-.1-.8a5.72 5.72 0 0 1-1 .68 2.6 2.6 0 0 1-1.3.33zm.34-.92a1.93 1.93 0 0 0 .92-.23 4.63 4.63 0 0 0 .88-.7v-1.9a11.66 11.66 0 0 0-1.43.28 3.78 3.78 0 0 0-.94.36 1.4 1.4 0 0 0-.52.48 1.14 1.14 0 0 0-.15.6 1 1 0 0 0 .35.83 1.42 1.42 0 0 0 .9.28zM461.28 380.85a2.22 2.22 0 0 1-.92-.17 1.57 1.57 0 0 1-.6-.46 1.78 1.78 0 0 1-.33-.7 4 4 0 0 1-.1-.93v-3.77h-1V374l1.06-.07.13-1.9h1v1.9h1.83v.94h-1.86v3.77a1.73 1.73 0 0 0 .23 1 .9.9 0 0 0 .82.34 1.52 1.52 0 0 0 .4-.06l.37-.13.22.86a6 6 0 0 1-.6.17 2.87 2.87 0 0 1-.66.02zM464.45 372.5a.8.8 0 0 1-.57-.2.73.73 0 0 1 0-1.08.9.9 0 0 1 1.13 0 .73.73 0 0 1 0 1.07.8.8 0 0 1-.55.2zm-.6 8.2v-6.8H465v6.8zM469.94 380.85a3 3 0 0 1-1.2-.24 2.93 2.93 0 0 1-1-.68 3.34 3.34 0 0 1-.68-1.12 4.53 4.53 0 0 1 0-3 3.44 3.44 0 0 1 .7-1.12 2.88 2.88 0 0 1 1-.7 3.12 3.12 0 0 1 2.38 0 2.9 2.9 0 0 1 1 .7 3.46 3.46 0 0 1 .7 1.13 4.53 4.53 0 0 1 0 3 3.36 3.36 0 0 1-.7 1.13 3 3 0 0 1-1 .7 3 3 0 0 1-1.2.22zm0-1a1.7 1.7 0 0 0 .8-.2 1.84 1.84 0 0 0 .62-.52 2.53 2.53 0 0 0 .4-.82 3.77 3.77 0 0 0 .14-1.05 3.84 3.84 0 0 0-.14-1.07 2.63 2.63 0 0 0-.4-.83 1.8 1.8 0 0 0-.62-.54 1.77 1.77 0 0 0-1.6 0 1.8 1.8 0 0 0-.6.55 2.6 2.6 0 0 0-.4.83 3.84 3.84 0 0 0-.15 1.07 3.77 3.77 0 0 0 .13 1.06 2.5 2.5 0 0 0 .4.83 1.82 1.82 0 0 0 .62.53 1.7 1.7 0 0 0 .8.24zM474.87 380.7v-6.8h1l.1 1a5.53 5.53 0 0 1 1-.82 2.35 2.35 0 0 1 1.25-.33 1.83 1.83 0 0 1 1.57.67 3.3 3.3 0 0 1 .5 2v4.3h-1.16v-4.15a2.42 2.42 0 0 0-.3-1.4 1.12 1.12 0 0 0-1-.42 1.67 1.67 0 0 0-.95.27 6.14 6.14 0 0 0-.93.78v4.92zM152.5 380.7l-1.93-9.18h1.2l1 5q.13.75.27 1.48t.27 1.48h.07l.32-1.5.3-1.46 1.28-5h1.06l1.27 5 .34 1.47.34 1.48h.06l.25-1.5.26-1.46 1-5h1.12l-1.9 9.17h-1.4l-1.38-5.53-.23-1-.22-1h-.06l-.24 1-.23 1-1.35 5.52zM165 380.85a3 3 0 0 1-1.2-.24 2.94 2.94 0 0 1-1-.68 3.35 3.35 0 0 1-.68-1.12 4.54 4.54 0 0 1 0-3 3.45 3.45 0 0 1 .7-1.12 2.9 2.9 0 0 1 1-.7 3.12 3.12 0 0 1 2.38 0 2.9 2.9 0 0 1 1 .7 3.46 3.46 0 0 1 .7 1.13 4.53 4.53 0 0 1 0 3 3.36 3.36 0 0 1-.7 1.13 2.94 2.94 0 0 1-1 .7 3 3 0 0 1-1.2.22zm0-1a1.7 1.7 0 0 0 .8-.2 1.83 1.83 0 0 0 .62-.52 2.5 2.5 0 0 0 .4-.82 3.75 3.75 0 0 0 .14-1.05 3.82 3.82 0 0 0-.14-1.07 2.6 2.6 0 0 0-.4-.83 1.8 1.8 0 0 0-.62-.54 1.77 1.77 0 0 0-1.6 0 1.8 1.8 0 0 0-.6.55 2.6 2.6 0 0 0-.4.83 3.82 3.82 0 0 0-.15 1.07 3.75 3.75 0 0 0 .14 1.06 2.5 2.5 0 0 0 .4.83 1.83 1.83 0 0 0 .6.53 1.7 1.7 0 0 0 .8.24zM169.95 380.7v-6.8h1l.1 1.23a3.13 3.13 0 0 1 .85-1 1.75 1.75 0 0 1 1.08-.38 1.8 1.8 0 0 1 .73.14l-.2 1-.32-.1a1.83 1.83 0 0 0-.35 0 1.52 1.52 0 0 0-.9.36 2.77 2.77 0 0 0-.82 1.22v4.36zM174.8 380.7v-9.96h1.12v6.73l2.9-3.58h1.26l-2.28 2.7 2.58 4.08h-1.26l-2-3.27-1.27 1.5v1.78zM183.48 380.85a3.66 3.66 0 0 1-1.38-.27 4.3 4.3 0 0 1-1.15-.67l.57-.76a4.56 4.56 0 0 0 .92.6 2.48 2.48 0 0 0 1.08.2 1.44 1.44 0 0 0 1-.3 1 1 0 0 0 .33-.75.77.77 0 0 0-.14-.47 1.4 1.4 0 0 0-.35-.34 2.6 2.6 0 0 0-.5-.27l-.56-.22q-.37-.12-.74-.28a2.88 2.88 0 0 1-.65-.4 2 2 0 0 1-.46-.53 1.43 1.43 0 0 1-.18-.75 1.83 1.83 0 0 1 .16-.76 1.75 1.75 0 0 1 .46-.62 2.17 2.17 0 0 1 .73-.4 3.28 3.28 0 0 1 2.17.07 3.66 3.66 0 0 1 .93.54l-.54.72a3.64 3.64 0 0 0-.73-.43 2 2 0 0 0-.82-.18 1.3 1.3 0 0 0-.93.3.93.93 0 0 0-.3.67.7.7 0 0 0 .13.4 1.18 1.18 0 0 0 .33.3 2.75 2.75 0 0 0 .48.25l.58.22.73.3a2.82 2.82 0 0 1 .67.37 1.9 1.9 0 0 1 .48.57 1.63 1.63 0 0 1 .2.82 1.9 1.9 0 0 1-.17.78 1.86 1.86 0 0 1-.48.64 2.27 2.27 0 0 1-.78.44 3.28 3.28 0 0 1-1.04.17zM189.42 380.85a2.22 2.22 0 0 1-.92-.17 1.57 1.57 0 0 1-.6-.46 1.8 1.8 0 0 1-.33-.7 4 4 0 0 1-.1-.93v-3.77h-1V374l1.06-.07.14-1.9h1v1.9h1.83v.94h-1.83v3.77a1.73 1.73 0 0 0 .23 1 .9.9 0 0 0 .82.34 1.53 1.53 0 0 0 .4-.06l.37-.13.2.86a6 6 0 0 1-.6.17 2.87 2.87 0 0 1-.68.02zM193.28 380.85a2.06 2.06 0 0 1-1.42-.5 1.8 1.8 0 0 1-.57-1.43 1.9 1.9 0 0 1 1-1.7 8.2 8.2 0 0 1 3.16-.84 3.12 3.12 0 0 0-.06-.63 1.56 1.56 0 0 0-.22-.54 1.14 1.14 0 0 0-.43-.37 1.45 1.45 0 0 0-.7-.15 2.76 2.76 0 0 0-1.1.22 5.46 5.46 0 0 0-.9.5l-.46-.8a7.35 7.35 0 0 1 1.15-.6 3.88 3.88 0 0 1 1.5-.28 2.1 2.1 0 0 1 1.8.76 3.36 3.36 0 0 1 .57 2v4.16h-1l-.1-.8a5.7 5.7 0 0 1-1 .68 2.6 2.6 0 0 1-1.24.33zm.33-.92a1.93 1.93 0 0 0 .93-.23 4.62 4.62 0 0 0 .92-.68v-1.9a11.7 11.7 0 0 0-1.43.28 3.8 3.8 0 0 0-.94.36 1.4 1.4 0 0 0-.52.48 1.14 1.14 0 0 0-.16.6 1 1 0 0 0 .35.83 1.42 1.42 0 0 0 .86.26zM200.7 380.85a2.22 2.22 0 0 1-.92-.17 1.57 1.57 0 0 1-.6-.46 1.8 1.8 0 0 1-.33-.7 4 4 0 0 1-.1-.93v-3.77h-1V374l1.06-.07.15-1.9h1v1.9h1.83v.94h-1.83v3.77a1.73 1.73 0 0 0 .23 1 .9.9 0 0 0 .82.34 1.53 1.53 0 0 0 .4-.06l.37-.13.22.86a6 6 0 0 1-.62.17 2.87 2.87 0 0 1-.68.02zM203.87 372.5a.8.8 0 0 1-.57-.2.73.73 0 0 1 0-1.08.9.9 0 0 1 1.13 0 .73.73 0 0 1 0 1.07.8.8 0 0 1-.56.2zm-.6 8.2v-6.8h1.16v6.8zM209.36 380.85a3 3 0 0 1-1.2-.24 2.94 2.94 0 0 1-1-.68 3.35 3.35 0 0 1-.68-1.12 4.54 4.54 0 0 1 0-3 3.45 3.45 0 0 1 .7-1.12 2.9 2.9 0 0 1 1-.7 3.12 3.12 0 0 1 2.38 0 2.9 2.9 0 0 1 1 .7 3.46 3.46 0 0 1 .7 1.13 4.53 4.53 0 0 1 0 3 3.36 3.36 0 0 1-.7 1.13 2.94 2.94 0 0 1-1 .7 3 3 0 0 1-1.2.22zm0-1a1.7 1.7 0 0 0 .8-.2 1.83 1.83 0 0 0 .62-.52 2.5 2.5 0 0 0 .4-.82 3.75 3.75 0 0 0 .14-1.05 3.82 3.82 0 0 0-.14-1.07 2.6 2.6 0 0 0-.4-.83 1.8 1.8 0 0 0-.62-.54 1.77 1.77 0 0 0-1.6 0 1.8 1.8 0 0 0-.6.55 2.6 2.6 0 0 0-.4.83 3.82 3.82 0 0 0-.15 1.07 3.75 3.75 0 0 0 .15 1.06 2.5 2.5 0 0 0 .4.83 1.83 1.83 0 0 0 .62.53 1.7 1.7 0 0 0 .8.24zM214.3 380.7v-6.8h1l.1 1a5.5 5.5 0 0 1 1-.82 2.35 2.35 0 0 1 1.24-.33 1.83 1.83 0 0 1 1.57.67 3.32 3.32 0 0 1 .5 2v4.3h-1.14v-4.15a2.43 2.43 0 0 0-.3-1.4 1.12 1.12 0 0 0-1-.42 1.67 1.67 0 0 0-.95.27 6.1 6.1 0 0 0-.9.78v4.92z"/></svg>