<?xml version="1.0" encoding="utf-8"?>
<!-- Generator: Adobe Illustrator 21.1.0, SVG Export Plug-In . SVG Version: 6.00 Build 0)  -->
<svg version="1.1" id="Layer_1" xmlns="http://www.w3.org/2000/svg" xmlns:xlink="http://www.w3.org/1999/xlink" x="0px" y="0px"
	 viewBox="0 0 1200 800" style="enable-background:new 0 0 1200 800;" xml:space="preserve">
<style type="text/css">
	.st0{fill:#F8F8F8;}
	.st1{fill:#1A1918;}
</style>
<rect x="-23" y="-12.5" class="st0" width="1236" height="824"/>
<g>
	<g transform="translate(0.000000, 281.859985)">
		<path class="st1" d="M539.4,274.8c-0.5,0-1.1-0.1-1.5-0.7l-17.4-22.9v23.3h-4v-28.7c0-1.1,0.9-2.1,2-2.1c0.6,0,1.2,0.2,1.6,0.7
			l17.3,22.8v-23.2h4v28.7C541.5,274,540.5,274.8,539.4,274.8"/>
		<path class="st1" d="M572.2,275.1c-4,0-8.1-0.8-12-2.3l0.9-3.3c3.6,1.1,7.4,2,11,2c5,0,7.6-1.8,7.6-4.3c0-2.3-2-3.4-9-6.7
			c-7-3.3-9.7-5.4-9.7-9.5c0-5.2,4-7.3,11.4-7.3c3.1,0,7.9,0.6,10.6,1.5l-0.6,3.4c-3-0.7-6.8-1.2-9.9-1.2c-5.3,0-7.4,1-7.4,3.5
			c0,2.5,1.6,3.5,9,6.9c7.8,3.6,9.8,5.4,9.8,9.2C583.9,272.4,578.8,275.1,572.2,275.1"/>
		<path class="st1" d="M602.7,244.1h4.1v30.5h-4.1V244.1z"/>
		<path class="st1" d="M641.7,260.7h-10.2v10.3h10.2c3.5,0,5.6-2.2,5.6-5.3C647.3,262.9,645.1,260.7,641.7,260.7 M639.7,247.6h-8.2
			v9.7h8.2c3.3,0,5.7-2.1,5.7-5C645.4,249.4,643.3,247.6,639.7,247.6 M641.7,274.6h-12.2c-1.2,0-2.1-0.9-2.1-2.1v-26.3
			c0-1.1,0.9-2.1,2.1-2.1h10.1c6.2,0,9.9,3.1,9.9,7.9c0,2.6-1.5,5-3.9,6.4c3.5,1.1,5.8,3.9,5.8,7.4
			C651.5,270.7,647.5,274.6,641.7,274.6"/>
		<path class="st1" d="M671.1,274.6c-1.1,0-2-1-2-2.1v-28.4h4.1v26.7h16.3v3.7H671.1z"/>
		<path class="st1" d="M717.5,275.1c-8.4,0-13.4-3.1-13.4-9.4c0-3,1.7-5.8,4.9-7.1c-2.6-1.6-4-4-4-6.5c0-5.7,4.4-8.4,12.6-8.4
			c2.7,0,6.6,0.3,9.9,1.1l-0.5,3.4c-3.4-0.5-6.6-0.9-9.7-0.9c-5.3,0-8.2,1.5-8.2,5c0,2.8,2.6,5,6.1,5h7c1,0,1.8,0.8,1.8,1.7
			c0,1-0.8,1.8-1.8,1.8h-7.6c-4,0-6.5,2-6.5,5c0,4.4,4.1,5.8,9.2,5.8c2.8,0,6.6-0.4,9.6-1.1l0.6,3.3
			C724.7,274.5,720.8,275.1,717.5,275.1"/>
		<path class="st1" d="M486.1,249.8l7.2,18l-10.8-8.7L486.1,249.8z M498.8,271.9l-11-27c-0.3-0.8-0.9-1.2-1.7-1.2
			c-0.8,0-1.4,0.4-1.8,1.2l-12.1,29.6h4.1l4.8-12.2l14.3,11.7c0.6,0.5,1,0.7,1.5,0.7c1.1,0,2-0.8,2-2
			C499,272.6,498.9,272.3,498.8,271.9L498.8,271.9z"/>
	</g>
</g>
<g>
	<polygon class="st1" points="585.5,363.2 635.4,402.5 602.4,321 	"/>
	<path class="st1" d="M600.2,243.1c-70.5,0-127.6,57.1-127.6,127.6c0,70.5,57.1,127.6,127.6,127.6c70.5,0,127.6-57.1,127.6-127.6
		C727.8,300.2,670.7,243.1,600.2,243.1z M652.6,434.1c-2.5,0-4.4-1-7-3.1l-65.8-53.2l-22.1,55.3h-19.1l55.7-134
		c1.4-3.5,4.6-5.4,8.1-5.4c3.5,0,6.4,1.9,7.9,5.4L661,421.3c0.6,1.5,0.9,2.9,0.9,3.8C661.9,430.4,657.6,434.1,652.6,434.1z"/>
</g>
</svg>
