<svg baseProfile="tiny" xmlns="http://www.w3.org/2000/svg" viewBox="0 0 1200 800"><path fill="#F87E40" d="M-23-12.5h1236v824H-23z"/><path fill="#373737" d="M592.3 274.3h15.3v247.3h-15.3z"/><path fill="#FFF" d="M728 325c0 6-4.3 10.8-9.8 10.8H481.7c-5.4 0-10-4.8-10-10.8v-52c0-6 4.5-11 10-11h236.5c5.4 0 10 5 10 11v52z"/><g fill="#373737"><path d="M501 280.5h75.4v11H501zm0 25.8h75.4v11H501zm88.8-32h7.7v49.3h-7.7zm19.2 0h7.6v49.3H609zm19 0h7.8v49.3H628z"/><circle cx="672.5" cy="286.2" r="6.9"/><circle cx="652.9" cy="286.2" r="6.9"/><circle cx="692" cy="286.2" r="6.9"/></g><path fill="#FFF" d="M728 408.4c0 6-4.3 10.8-9.8 10.8H481.7c-5.4 0-10-4.8-10-10.8v-52c0-6 4.5-11 10-11h236.5c5.4 0 10 5 10 11v52z"/><g fill="#373737"><path d="M501 364h75.4v11H501zm0 25.7h75.4v11H501zm88.8-32h7.7V407h-7.7zm19.2 0h7.6V407H609zm19 0h7.8V407H628z"/><circle cx="672.5" cy="369.5" r="6.9"/><circle cx="652.9" cy="369.5" r="6.9"/><circle cx="692" cy="369.5" r="6.9"/></g><path fill="#FFF" d="M728 491.8c0 6-4.3 10.8-9.8 10.8H481.7c-5.4 0-10-4.8-10-10.8v-52c0-6 4.5-11 10-11h236.5c5.4 0 10 5 10 11v52z"/><g fill="#373737"><path d="M501 447.3h75.4v11H501zm0 25.7h75.4v11.2H501zm88.8-32h7.7v49.4h-7.7zm19.2 0h7.6v49.4H609zm19 0h7.8v49.4H628z"/><circle cx="672.5" cy="452.9" r="6.9"/><circle cx="652.9" cy="452.9" r="6.9"/><circle cx="692" cy="452.9" r="6.9"/></g><path fill="#373737" d="M511 525h178v9.3H511z"/><path fill="#373737" d="M582.5 521.2h35V538h-35z"/><path fill="#373737" d="M592.3 274.3h15.3v247.3h-15.3z"/><path fill="#FFF" d="M728 325c0 6-4.3 10.8-9.8 10.8H481.7c-5.4 0-10-4.8-10-10.8v-52c0-6 4.5-11 10-11h236.5c5.4 0 10 5 10 11v52z"/><g fill="#373737"><path d="M501 280.5h75.4v11H501zm0 25.8h75.4v11H501zm88.8-32h7.7v49.3h-7.7zm19.2 0h7.6v49.3H609zm19 0h7.8v49.3H628z"/><circle cx="672.5" cy="286.2" r="6.9"/><circle cx="652.9" cy="286.2" r="6.9"/><circle cx="692" cy="286.2" r="6.9"/></g><path fill="#FFF" d="M728 408.4c0 6-4.3 10.8-9.8 10.8H481.7c-5.4 0-10-4.8-10-10.8v-52c0-6 4.5-11 10-11h236.5c5.4 0 10 5 10 11v52z"/><g fill="#373737"><path d="M501 364h75.4v11H501zm0 25.7h75.4v11H501zm88.8-32h7.7V407h-7.7zm19.2 0h7.6V407H609zm19 0h7.8V407H628z"/><circle cx="672.5" cy="369.5" r="6.9"/><circle cx="652.9" cy="369.5" r="6.9"/><circle cx="692" cy="369.5" r="6.9"/></g><path fill="#FFF" d="M728 491.8c0 6-4.3 10.8-9.8 10.8H481.7c-5.4 0-10-4.8-10-10.8v-52c0-6 4.5-11 10-11h236.5c5.4 0 10 5 10 11v52z"/><g fill="#373737"><path d="M501 447.3h75.4v11H501zm0 25.7h75.4v11.2H501zm88.8-32h7.7v49.4h-7.7zm19.2 0h7.6v49.4H609zm19 0h7.8v49.4H628z"/><circle cx="672.5" cy="452.9" r="6.9"/><circle cx="652.9" cy="452.9" r="6.9"/><circle cx="692" cy="452.9" r="6.9"/></g><path fill="#373737" d="M511 525h178v9.3H511z"/><path fill="#373737" d="M582.5 521.2h35V538h-35z"/></svg>