<?xml version="1.0" encoding="utf-8"?>
<!-- Generator: Adobe Illustrator 21.0.2, SVG Export Plug-In . SVG Version: 6.00 Build 0)  -->
<svg version="1.1" id="Layer_1" xmlns="http://www.w3.org/2000/svg" xmlns:xlink="http://www.w3.org/1999/xlink" x="0px" y="0px"
	 viewBox="0 0 1200 800" style="enable-background:new 0 0 1200 800;" xml:space="preserve">
<style type="text/css">
	.st0{fill:#F8F8F8;}
	.st1{fill:#0080FF;}
	.st2{fill:#1D1D1B;}
	.st3{fill:#556757;}
	.st4{fill:#00A85D;}
</style>
<rect x="-23" y="-12.5" class="st0" width="1236" height="824"/>
<g id="_Group_">
	<g id="_Group_2">
		<g id="_Group_3">
			<g id="_Group_4">
				<g id="_Group_5">
					<path id="_Path_" class="st1" d="M311.8,443.9v-33.7c35.7,0,63.4-35.4,49.7-72.9c-5.1-13.9-16.1-24.9-30-30
						c-37.5-13.6-72.9,14-72.9,49.7h-33.6c0-56.9,55-101.2,114.6-82.6c26.1,8.3,46.6,28.7,54.9,54.9
						C413,389,368.6,443.9,311.8,443.9z"/>
				</g>
				<polygon id="_Path_2" class="st1" points="311.9,410.4 278.3,410.4 278.3,376.8 278.3,376.8 311.9,376.8 311.9,376.8 				"/>
				<polygon id="_Path_3" class="st1" points="278.3,436.1 252.6,436.1 252.6,436.1 252.6,410.4 278.3,410.4 				"/>
				<path id="_Path_4" class="st1" d="M252.6,410.4H231v-21.6h21.6L252.6,410.4z"/>
			</g>
		</g>
	</g>
	<g id="_Group_6">
		<path id="_Compound_Path_" class="st1" d="M168.1,478c-4.3-3-9.9-4.5-16.2-4.5h-13.8v43.9h13.9c6.3,0,11.8-1.6,16.2-4.8
			c2.5-1.8,4.4-4.2,5.6-7c1.4-3.3,2-6.8,2-10.4c0-3.5-0.6-7-2-10.2C172.6,482.1,170.7,479.7,168.1,478z M146.3,480.9h4.3
			c4.8,0,8.8,1,11.8,2.9c3.4,2.1,5,5.9,5,11.4c0,5.7-1.7,9.8-5,11.9l0,0c-2.9,1.9-6.8,2.9-11.7,2.9h-4.4L146.3,480.9z"/>
		<path id="_Path_5" class="st1" d="M185.4,472.9c-1.3,0-2.5,0.5-3.4,1.4c-0.9,0.9-1.4,2.1-1.4,3.4c0,1.3,0.5,2.5,1.4,3.5
			c0.9,0.9,2.2,1.4,3.4,1.4c1.3,0,2.5-0.5,3.4-1.4c0.9-0.9,1.4-2.2,1.4-3.5c0-1.3-0.5-2.5-1.4-3.4
			C187.9,473.4,186.7,472.9,185.4,472.9z"/>
		<rect id="_Path_6" x="181.4" y="486.4" class="st1" width="7.8" height="30.9"/>
		<path id="_Compound_Path_2" class="st1" d="M217.5,489c-2.1-2-4.9-3.2-7.8-3.4c-4-0.2-7.9,1.4-10.6,4.4c-2.8,3-4.4,7-4.2,11.1
			c-0.1,4.1,1.4,8,4.1,11c2.8,2.9,6.6,4.4,10.6,4.3c2.8,0.1,5.5-0.8,7.7-2.5v0.7c0.1,2.2-0.6,4.3-2.1,5.9c-1.5,1.4-3.5,2.2-5.6,2.1
			c-3.6,0-5.8-1.4-8.6-5.1l-5.3,5.1l0.1,0.2c1.4,1.9,3.2,3.4,5.2,4.6c2.6,1.6,5.6,2.4,8.7,2.3c4.6,0,8.4-1.4,11.1-4.2
			s4.2-6.5,4.2-11.2v-28.1h-7.7v2.7H217.5z M215.4,507.3c-1.3,1.5-3.3,2.4-5.3,2.3c-2,0.1-4-0.8-5.3-2.3c-1.4-1.7-2.1-3.8-2-6
			c-0.1-2.2,0.6-4.4,2-6.1c1.3-1.5,3.3-2.4,5.3-2.3c2-0.1,4,0.8,5.3,2.3c1.4,1.7,2.2,3.9,2.1,6.1
			C217.6,503.5,216.8,505.6,215.4,507.3L215.4,507.3z"/>
		<rect id="_Path_7" x="231.8" y="486.4" class="st1" width="7.8" height="30.9"/>
		<path id="_Path_8" class="st1" d="M235.7,472.9c-1.3,0-2.5,0.5-3.4,1.4c-0.9,0.9-1.4,2.1-1.4,3.4c0,1.3,0.5,2.5,1.4,3.5
			c0.9,0.9,2.2,1.4,3.4,1.4c1.3,0,2.5-0.5,3.4-1.4c0.9-0.9,1.4-2.2,1.4-3.5c0-1.3-0.5-2.5-1.4-3.4
			C238.2,473.4,237,472.9,235.7,472.9z"/>
		<path id="_Path_9" class="st1" d="M256.6,478h-7.7v8.4h-4.4v7.1h4.4v12.8c0,4,0.8,6.9,2.4,8.6c1.6,1.7,4.4,2.5,8.4,2.5
			c1.3,0,2.6,0,3.7-0.1h0.4v-7.1l-2.7,0.1c-1.9,0-3-0.3-3.6-1s-0.9-2.1-0.9-4.1v-11.7h7.3v-7.1h-7.3L256.6,478z"/>
		<rect id="_Path_10" x="300.4" y="473.4" class="st1" width="7.8" height="44"/>
		<path id="_Path_11" class="st1" d="M386.8,506.3c-1.2,1.4-2.5,2.6-3.9,3.6l0,0c-1.2,0.7-2.6,1.1-4,1.1c-2.2,0.1-4.3-0.9-5.6-2.6
			c-1.5-1.8-2.3-4.1-2.3-6.5c-0.1-2.4,0.7-4.7,2.3-6.5c1.4-1.7,3.5-2.6,5.6-2.6c2.5,0,5.1,1.6,7.4,4.2l5.1-4.9l0,0
			c-5.1-7-14.9-8.5-21.9-3.4c-0.7,0.5-1.3,1-1.9,1.6c-3.1,3-4.7,7.2-4.6,11.6c-0.1,4.3,1.5,8.5,4.5,11.5c2.9,3,6.9,4.7,11,4.6
			c5.3,0.1,10.3-2.5,13.3-6.9L386.8,506.3z"/>
		<path id="_Compound_Path_3" class="st1" d="M418.8,490.7c-1.1-1.6-2.7-2.9-4.4-3.6c-2-0.9-4.2-1.4-6.4-1.4
			c-4.1-0.1-7.9,1.6-10.5,4.7c-2.6,3.3-4,7.4-3.9,11.6c-0.1,4.2,1.4,8.4,4.2,11.5c3,3,7,4.6,11.2,4.4c5,0.1,9.8-2.3,12.8-6.3
			l0.2-0.2l-5.1-4.9l0,0c-0.5,0.6-1.2,1.2-1.8,1.8c-0.7,0.7-1.4,1.2-2.3,1.7c-1.2,0.6-2.6,0.9-3.9,0.9c-1.9,0.1-3.9-0.6-5.3-1.9
			c-1.3-1.2-2.1-2.9-2.3-4.7h20.6l0.1-2.9c0-1.9-0.3-3.9-0.8-5.7C420.7,493.9,419.9,492.3,418.8,490.7z M401.8,498
			c0.3-1.4,1-2.7,2.1-3.6c1.1-1,2.5-1.6,4-1.6c1.6-0.1,3.2,0.5,4.3,1.6c0.9,1,1.5,2.3,1.6,3.6H401.8z"/>
		<path id="_Compound_Path_4" class="st1" d="M448.6,488.8L448.6,488.8c-2.8-2.1-6.2-3.2-9.7-3c-2.5,0-5,0.6-7.2,1.7
			c-2.2,1.1-4.1,2.8-5.3,4.9l0.1,0.1l5,4.7c2.1-3.2,4.3-4.4,7.4-4.4c1.4-0.1,2.9,0.4,4,1.3c1,0.8,1.6,2.1,1.6,3.4v1.5
			c-1.8-0.6-3.8-0.9-5.7-0.9c-3.3-0.2-6.6,0.8-9.4,2.7c-2.4,1.9-3.7,4.8-3.5,7.8c-0.1,2.7,1,5.3,3,7c2.1,1.7,4.8,2.6,7.5,2.6
			c3.1-0.1,6-1.2,8.3-3.2v2.6h7.7v-19.9C452.2,493.7,451,490.7,448.6,488.8z M434.9,505.5c1.1-0.7,2.4-1,3.7-0.9c2,0,4,0.4,5.9,1.1
			v3c-1.8,1.6-4.2,2.5-6.7,2.4c-1.1,0.1-2.2-0.2-3.1-0.9c-0.7-0.5-1.1-1.4-1.1-2.3C433.5,507,434,506,434.9,505.5z"/>
		<path id="_Path_12" class="st1" d="M482.1,489.4c-2.2-2.5-5.2-3.6-9.1-3.6c-2.7-0.1-5.4,0.8-7.5,2.7v-1.9H458v30.8h7.8v-17
			c-0.1-2,0.5-3.9,1.7-5.5c1.1-1.4,2.9-2.1,4.6-2c1.5-0.1,3,0.6,4,1.8c1,1.4,1.6,3.1,1.5,4.8v17.9h7.8v-17.9
			C485.4,495.2,484.3,491.7,482.1,489.4z"/>
		<path id="_Compound_Path_5" class="st1" d="M290.6,488.8L290.6,488.8c-2.8-2.1-6.2-3.2-9.7-3c-2.5,0-5,0.6-7.2,1.7
			c-2.2,1.1-4.1,2.8-5.3,4.9l0.1,0.1l5,4.7c2.1-3.2,4.3-4.4,7.4-4.4c1.4-0.1,2.9,0.4,4,1.3c1,0.8,1.6,2.1,1.6,3.4v1.5
			c-1.8-0.6-3.8-0.9-5.7-0.9c-3.3-0.2-6.6,0.8-9.4,2.7c-2.4,1.9-3.7,4.8-3.5,7.8c-0.1,2.7,1,5.3,3,7c2.1,1.7,4.8,2.6,7.5,2.6
			c3.1-0.1,6-1.2,8.3-3.2v2.6h7.7v-19.9C294.1,493.7,293,490.7,290.6,488.8z M276.8,505.5c1.1-0.7,2.4-1,3.7-0.9c2,0,4,0.4,5.9,1.1
			v3c-1.8,1.6-4.2,2.5-6.7,2.4c-1.1,0.1-2.2-0.2-3.1-0.9c-0.7-0.5-1.1-1.4-1.1-2.3C275.5,507,276,506,276.8,505.5z"/>
		<path id="_Compound_Path_6" class="st1" d="M336.4,518c-12.5,0-22.7-10.1-22.7-22.7s10.1-22.7,22.7-22.7s22.7,10.1,22.7,22.7
			C359.1,507.9,348.9,518,336.4,518z M336.4,480.7c-8.1,0-14.7,6.6-14.7,14.7c0,8.1,6.6,14.7,14.7,14.7c8.1,0,14.7-6.6,14.7-14.7
			c0,0,0,0,0,0C351.1,487.3,344.5,480.7,336.4,480.7L336.4,480.7z"/>
	</g>
</g>
<path class="st2" d="M758.5,349.4l13.3-3.2v64c0,7,2.1,11.2,6.3,12.5c-2.1,3.9-5.6,5.9-10.5,5.9c-6,0-9-4.2-9-12.5L758.5,349.4"/>
<path class="st2" d="M791.9,427.5v-46h-7.3v-10.9h20.7v56.9L791.9,427.5 M798.7,348.6c4.3,0,7.7,3.4,7.7,7.7c0,4.3-3.4,7.7-7.7,7.7
	c-4.3,0-7.7-3.4-7.7-7.7c0-2,0.8-4,2.3-5.5C794.7,349.4,796.7,348.5,798.7,348.6L798.7,348.6z"/>
<path class="st2" d="M857.4,427.5v-32.9c0-4.9-0.9-8.4-2.8-10.6s-4.9-3.3-9.1-3.4c-2.2,0.1-4.3,0.6-6.2,1.6c-2,0.9-3.8,2.3-5.2,4.1
	v41.1h-13.3v-56.9h9.6l2.4,5.3c3.6-4.3,9-6.4,16-6.4c6.8,0,12.1,2,16,6.1c3.9,4.1,5.9,9.7,5.9,17v34.9L857.4,427.5"/>
<path class="st2" d="M881.3,399c0-8.7,2.5-15.7,7.5-21.2c5-5.5,11.6-8.2,19.9-8.2c8.7,0,15.4,2.6,20.2,7.9
	c4.8,5.2,7.2,12.4,7.2,21.5c0,9.1-2.4,16.3-7.3,21.6s-11.5,8-20,8c-8.7,0-15.4-2.7-20.2-8.1C883.8,415.1,881.4,407.9,881.3,399
	 M895.2,399c0,12.5,4.5,18.8,13.6,18.8c3.9,0.1,7.6-1.7,9.9-4.9c2.4-3.3,3.6-7.9,3.6-13.9c0-12.4-4.5-18.5-13.5-18.5
	c-3.9-0.1-7.6,1.7-9.9,4.9C896.4,388.6,895.2,393.1,895.2,399z"/>
<path class="st2" d="M983.3,427.5v-3.4c-1.6,1.5-3.5,2.6-5.6,3.2c-2.6,0.9-5.4,1.4-8.1,1.4c-7.9,0-14.2-2.5-18.7-7.5
	c-4.6-5-6.8-12.1-6.9-21.1c0-9,2.6-16.3,7.8-22c5-5.6,12.2-8.7,19.6-8.5c4.1-0.1,8.1,0.9,11.8,2.7v-22.8l13.3-3.2v81.3L983.3,427.5
	 M983.3,384.2c-2.5-2.1-5.6-3.3-8.9-3.4c-5.3,0-9.4,1.6-12.3,4.9c-2.9,3.2-4.3,7.9-4.3,14c0,11.8,5.7,17.8,17.1,17.8
	c1.6-0.1,3.2-0.5,4.7-1.1c1.4-0.4,2.6-1.2,3.6-2.3L983.3,384.2z"/>
<path class="st2" d="M1060.7,403.1H1020c0.2,4.5,1.8,8.1,4.7,10.6c2.9,2.5,6.7,3.8,11.6,3.8c6.1,0,10.7-1.6,13.8-4.7l5.2,10.1
	c-4.7,3.8-11.7,5.7-20.9,5.7c-8.7,0-15.5-2.5-20.6-7.6c-5.1-5.1-7.6-12.2-7.6-21.3c0-9,2.8-16.2,8.3-21.8c5.2-5.4,12.5-8.5,20-8.4
	c8.3,0,14.9,2.5,19.9,7.4c5,4.9,7.5,11.2,7.5,18.8C1061.7,398.2,1061.3,400.7,1060.7,403.1 M1020.5,393.1h28
	c-0.9-8.3-5.5-12.5-13.8-12.5C1027.1,380.7,1022.4,384.8,1020.5,393.1L1020.5,393.1z"/>
<path class="st3" d="M694.6,394.3l-2.3,26.2l-7.5-5.2l0.8-13.4l0,0c0,0,0,0,0,0c0-0.1,0-0.1,0-0.2c0,0,0-0.1,0-0.1
	c0-0.1-0.1-0.2-0.1-0.3l0,0c-0.1-0.1-0.1-0.2-0.2-0.2l0,0c0,0-0.1-0.1-0.2-0.1L669,390.3l0.2-11.7l25.4,15.9 M654.9,422.9l-11.6-8.9
	l0.1,2.1c0,0.4-0.2,0.8-0.5,1L634,423l9.5,7.8l0,0l0.1,0.1c0,0,0.1,0.1,0.1,0.1l0.1,0.1c0,0.1,0.1,0.1,0.1,0.2v0.1
	c0,0.1,0,0.1,0,0.2c0,0,0,0,0,0.1l0.4,9.1l10.7,9L654.9,422.9z M581.4,434.3l5.4,26.3l22.7,24.1l-4-26.7L581.4,434.3z M602.8,438.3
	l-5.4-36.8l-27.5-22.9l7.4,35.7L602.8,438.3z M594,378.6l-7.6-52.1L555,307l10.2,49.2L594,378.6z"/>
<path class="st4" d="M717.1,380l-3.4,25l-18.9,15l2.2-25.6L717.1,380 M657.3,422.8l0.2,27l24-19.1l1.6-26.3L657.3,422.8z
	 M641.7,433.9L608,458l4.1,27.9l30.8-24.5L641.7,433.9z M640.9,415.4l-1.6-36.5l-39.6,22.5l5.5,37.9L640.9,415.4z M638.4,357.8
	l-2.1-49.5l-47.5,18.3l7.8,53L638.4,357.8z"/>
<path class="st2" d="M719.9,377.3C719.9,377.3,719.9,377.3,719.9,377.3c0-0.1,0-0.2,0-0.2c0-0.1,0-0.1-0.1-0.2l0-0.1
	c0-0.1-0.1-0.1-0.1-0.2l-0.1-0.1c-0.1-0.1-0.1-0.1-0.2-0.1h-0.1l0,0l-27.5-15.3c-0.4-0.2-0.8-0.2-1.2,0l-23.2,14.2l-0.1,0.1
	l-0.1,0.1l-0.1,0.1l-0.1,0.1c0,0.1-0.1,0.1-0.1,0.2c0,0,0,0.1,0,0.1c0,0.1,0,0.1,0,0.2c0,0,0,0.1,0,0.1l-0.2,12.3l-9.4-6.2
	c-0.4-0.3-0.9-0.3-1.3,0l-13.6,8.3l-0.6-13.8c0,0,0-0.1,0-0.1c0-0.1,0-0.1,0-0.2c0,0,0-0.1,0-0.1c0-0.1,0-0.1-0.1-0.1l-0.1-0.1
	l-0.1-0.1l-0.1-0.1l-0.1-0.1l-14.2-9.5l13.2-6.9c0.4-0.2,0.7-0.7,0.7-1.1l-2.2-51.9c0-0.1,0-0.1,0-0.2c0,0,0,0,0-0.1
	c0-0.1-0.1-0.2-0.1-0.3l0,0c0-0.1-0.1-0.1-0.2-0.2l-0.1-0.1l-0.1-0.1h-0.1l0,0l-35.6-17.2c-0.3-0.1-0.6-0.2-0.9-0.1L553,303.5l0,0
	h-0.1c-0.1,0-0.2,0.1-0.3,0.1l0,0l-0.1,0.1c-0.1,0-0.1,0.1-0.2,0.2c0,0-0.1,0.1-0.1,0.1c0,0-0.1,0.1-0.1,0.1c0,0.1,0,0.1,0,0.2
	c0,0,0,0.1,0,0.1l0,0c0,0.1,0,0.1,0,0.2c0,0.1,0,0.1,0,0.2l0,0l10.8,52.4c0.1,0.3,0.2,0.5,0.4,0.7l14.5,11.4l-10.6,5.1h0l0,0l-0.1,0
	l-0.2,0.1l-0.1,0.1c-0.1,0.1-0.1,0.1-0.1,0.2v0.1c0,0.1-0.1,0.2-0.1,0.3l0,0c0,0,0,0,0,0c0,0.1,0,0.2,0,0.3l0,0l8.2,39.4
	c0,0.2,0.2,0.5,0.3,0.6l10.2,9.6l-6.8,4.1c-0.1,0.1-0.2,0.1-0.2,0.2v0.1c-0.1,0.1-0.1,0.1-0.2,0.2v0.1c-0.1,0.2-0.1,0.5-0.1,0.7l0,0
	l6.3,30.5c0,0.2,0.1,0.4,0.3,0.6l25.5,27.3l0.1,0.1l0,0c0.1,0.1,0.2,0.1,0.2,0.1l0,0c0.1,0.1,0.3,0.1,0.4,0.1c0.1,0,0.2,0,0.3-0.1
	h0.1h0.1c0,0,0.1-0.1,0.1-0.1l0.1,0l32.9-26.2c0.3-0.2,0.5-0.6,0.5-1l-0.8-18l11,9.2h0.1c0.1,0,0.1,0.1,0.2,0.1h0.1h0.1
	c0.2,0.1,0.5,0.1,0.7,0h0.1h0.1c0.1,0,0.1-0.1,0.2-0.1h0.1l26.4-21c0.3-0.2,0.4-0.5,0.5-0.9l0.8-13.2l8,5.6h0h0.1l0.2,0.1h0.1
	c0.1,0,0.2,0,0.3,0c0.1,0,0.2,0,0.3-0.1h0.1h0.1c0.1,0,0.1-0.1,0.2-0.1h0.1l21.5-17.1c0.2-0.2,0.4-0.5,0.4-0.8l3.8-28.2
	c0,0,0-0.1,0-0.1c0,0,0-0.1,0-0.1 M694.8,420l2.2-25.6l20.1-14.4l-3.4,25L694.8,420z M684.8,415.3l0.8-13.4l0,0c0,0,0,0,0,0
	c0-0.1,0-0.1,0-0.2c0,0,0-0.1,0-0.1c0-0.1-0.1-0.2-0.1-0.3l0,0c-0.1-0.1-0.1-0.2-0.2-0.2l0,0c0,0-0.1-0.1-0.2-0.1L669,390.3
	l0.2-11.7l25.4,15.9l-2.3,26.2L684.8,415.3z M681.5,430.6l-24,19.1l-0.2-27l25.8-18.5L681.5,430.6z M642.9,461.4l-30.8,24.5L608,458
	l33.7-24.1L642.9,461.4z M586.8,460.4l-5.4-26.3l24.3,23.9l3.9,26.5L586.8,460.4z M586.3,326.4l7.7,52.2l-28.8-22.5L555,307
	L586.3,326.4z M636.3,308.2l2.1,49.5l-41.9,21.8l-7.8-53L636.3,308.2z M640.9,415.3l-35.6,24l-5.5-37.9l39.6-22.5L640.9,415.3z
	 M597.3,401.3l5.4,36.8l-25.5-24l-7.4-35.7L597.3,401.3z M644,431.6C644,431.6,644,431.6,644,431.6c0-0.1,0-0.2,0-0.3v-0.1
	c0-0.1,0-0.1-0.1-0.2l-0.1-0.1c0-0.1-0.1-0.1-0.1-0.1l-0.1-0.1l0,0L634,423l8.8-5.9c0.3-0.2,0.5-0.6,0.5-1l-0.1-2.1l11.6,8.9
	l0.2,26.9l-10.7-9L644,431.6z"/>
</svg>
