<svg xmlns="http://www.w3.org/2000/svg" version="1.1" x="0" y="0" width="1200" height="800" viewBox="0 0 1200 800" enable-background="new 0 0 1200 800" xml:space="preserve"><rect x="-29" y="-12" fill="#6682BA" width="1252" height="829"/><path fill="#FFFFFF" d="M501.9 387.4c-2.1 10.8-6.1 18.5-11.8 22.9 -5.8 4.5-15.1 6.7-27.6 6.7h-15l10.8-55.6h19.3c14.2 0 19.9 3 22.2 5.6C503.2 370.5 503.9 377.5 501.9 387.4M657.1 446.9c0 0 14-72.1 14-72.1 3.2-16.3 0.5-28.4-7.8-36.1 -8.1-7.4-21.8-11-41.9-11h-24.3l6.9-35.7c0.3-1.3-0.1-2.7-1-3.8 -0.9-1.1-2.2-1.7-3.5-1.7h-33.5c-2.2 0-4.1 1.6-4.5 3.7l-14.9 76.5c-1.4-8.6-4.7-16-10-22.1 -9.8-11.2-25.3-16.9-46.2-16.9h-64.9c-2.2 0-4.1 1.6-4.5 3.7l-30.1 154.9c-0.3 1.3 0.1 2.7 1 3.8 0.9 1.1 2.2 1.7 3.5 1.7h33.7c2.2 0 4.1-1.6 4.5-3.7l7.3-37.5h25.1c13.2 0 24.2-1.4 32.9-4.2 8.8-2.9 17-7.7 24.1-14.5 5.8-5.3 10.6-11.3 14.3-17.7l-6 30.9c-0.3 1.3 0.1 2.7 1 3.8 0.9 1.1 2.2 1.7 3.5 1.7h33.5c2.2 0 4.1-1.6 4.5-3.7l16.5-85h23c9.8 0 12.7 1.9 13.4 2.8 0.7 0.8 2.2 3.5 0.5 11.9l-13.3 68.5c-0.3 1.3 0.1 2.7 1 3.8 0.9 1.1 2.2 1.7 3.5 1.7h34C654.8 450.6 656.7 449.1 657.1 446.9z"/><path fill="#FFFFFF" d="M765.3 387.4c-2.1 10.8-6.1 18.5-11.8 22.9 -5.8 4.5-15.1 6.7-27.6 6.7h-15l10.8-55.6h19.3c14.2 0 19.9 3 22.2 5.6C766.5 370.5 767.2 377.5 765.3 387.4M800.3 344.7c-9.8-11.2-25.3-16.9-46.2-16.9h-64.9c-2.2 0-4.1 1.6-4.5 3.7l-30.1 154.9c-0.3 1.3 0.1 2.7 1 3.8 0.9 1.1 2.2 1.7 3.5 1.7h33.7c2.2 0 4.1-1.6 4.5-3.7l7.3-37.5h25.1c13.2 0 24.2-1.4 32.9-4.2 8.8-2.9 17-7.7 24.1-14.5 6-5.5 10.9-11.7 14.6-18.3 3.7-6.7 6.4-14.1 8-22.1C813.2 371.8 810.1 356 800.3 344.7z"/><path d="M395.6 487.2h33.7l8-41.2h28.9c12.8 0 23.2-1.3 31.5-4 8.2-2.7 15.7-7.2 22.5-13.5 5.7-5.2 10.2-10.9 13.7-17.2 3.5-6.3 6-13.2 7.5-20.7 3.6-18.4 0.9-32.7-8.1-42.9 -8.9-10.2-23.2-15.4-42.7-15.4h-64.9L395.6 487.2M477.8 356.8c12.8 0 21.4 2.4 25.6 7.1 4.3 4.7 5.3 12.9 3.1 24.4 -2.3 12-6.8 20.5-13.5 25.7s-16.8 7.7-30.4 7.7h-20.5l12.6-64.8H477.8z"/><path d="M566.1 291.2h33.5l-8 41.2h29.8c18.8 0 31.7 3.3 38.8 9.8 7.1 6.5 9.3 17.2 6.4 31.8l-14 72.1h-34l13.3-68.5c1.5-7.8 1-13.1-1.7-15.9 -2.6-2.8-8.2-4.3-16.8-4.3h-26.7l-17.2 88.7H536L566.1 291.2"/><path d="M658.9 487.2h33.7l8-41.2h28.9c12.8 0 23.2-1.3 31.5-4 8.2-2.7 15.7-7.2 22.5-13.5 5.7-5.2 10.2-10.9 13.7-17.2 3.5-6.3 6-13.2 7.5-20.7 3.6-18.4 0.9-32.7-8.1-42.9 -8.9-10.2-23.2-15.4-42.7-15.4h-64.9L658.9 487.2M741.1 356.8c12.8 0 21.4 2.4 25.6 7.1 4.3 4.7 5.3 12.9 3.1 24.4 -2.3 12-6.8 20.5-13.5 25.7 -6.7 5.1-16.8 7.7-30.4 7.7h-20.5l12.6-64.8H741.1z"/></svg>