<?xml version="1.0" encoding="utf-8"?>
<!-- Generator: Adobe Illustrator 21.0.2, SVG Export Plug-In . SVG Version: 6.00 Build 0)  -->
<svg version="1.1" id="Layer_1" xmlns="http://www.w3.org/2000/svg" xmlns:xlink="http://www.w3.org/1999/xlink" x="0px" y="0px"
	 viewBox="0 0 1200 800" style="enable-background:new 0 0 1200 800;" xml:space="preserve">
<style type="text/css">
	.st0{fill:#F8F8F8;}
	.st1{fill:#CCCCCC;}
	.st2{fill:#6C78AF;}
	.st3{fill:#F89C0E;}
	.st4{fill:#009900;}
</style>
<title>phpmyadmin-with-nginx1</title>
<rect x="-47" y="-33" class="st0" width="1284" height="885"/>
<g id="g5">
	<g id="path14">
		<path class="st1" d="M482.2,275.4l-0.2-0.5c-0.1-0.1-0.3-0.2-0.5-0.2l-0.5,0.1c-0.2,0.2-0.4,0.4-0.4,0.6l-10,181.2l1.5-0.2
			l9.7-176.3l11.5,19h-0.1c8.7,25.7,12.4,53,11,82l0.7,1.1l11.4,20.3l0.7,0.7c16.8,15,37.1,25.7,59,31.1l5.3,8.6l0.7,0.2l0.1-0.2
			L482,278.8L482.2,275.4"/>
	</g>
	<g id="path18">
		<path class="st1" d="M478.7,339.3c12.4,25.3,16.9,63.6,13.5,114.8l48.2-5.9L478.7,339.3z"/>
	</g>
	<g id="path20">
		<path class="st1" d="M588.4,450.6c4.9-0.6,8.1-1.6,9.5-3.2l-252,30.7h-0.1c0.1,10.5,4.8,18.7,14,24.6c2.3,1.6,4.8,2.9,7.4,3.9
			c2.2-2.5,4.8-4.6,7.7-6.2h0.1c26.4-16,65.5-18.5,117.4-7.5l0.6,0.1c5.6,1.2,11.3,2.6,16.6,4.2c1.4,0.2,2.8-0.2,3.9-1.2
			c2.2-1.6,4.7-2.7,7.4-3.2v-0.1c8.4-14.8,19.7-25.8,33.8-33C565.3,454.6,576.7,451.5,588.4,450.6"/>
	</g>
	<g id="path22">
		<path class="st1" d="M467.4,455.2l11.5-176.9c-16.6,64.3-43.8,125.4-80.4,180.8L467.4,455.2"/>
	</g>
	<g id="path24">
		<path class="st1" d="M402.5,312.7l-0.5-0.2l-0.5,0.1l-0.2,0.6l-9.5,153.1l1.4-0.1l9.5-153L402.5,312.7"/>
	</g>
	<g id="path26">
		<path class="st1" d="M389.1,462.9L389.1,462.9l10.1-149.3l-53.3,153.9L389.1,462.9"/>
	</g>
</g>
<g id="g13">
	<g id="path34">
		<path class="st1" d="M333.9,519.8c-0.4,0-0.7-0.3-0.7-0.7c0-0.3,0.2-0.5,0.4-0.6c6.4-3,12.1-4.8,16.8-5.3s8.9,0.3,12.1,2.5
			c6,3.8,15.5,2.6,28.4-3.6c0.3-0.2,0.8,0,0.9,0.3c0.2,0.3,0,0.8-0.3,0.9c-6.7,3.2-12.5,5.1-17.5,5.7s-9.1-0.1-12.3-2.2l0,0
			c-2.9-2-6.7-2.7-11.2-2.3s-10.1,2.2-16.4,5.2C334,519.7,333.9,519.8,333.9,519.8z"/>
	</g>
	<g id="path36">
		<path class="st1" d="M370,525.3c-2,0-4-0.1-6.1-0.3c-0.4,0-0.7-0.4-0.6-0.8s0.4-0.7,0.8-0.6c11.6,1.1,21.1-0.8,29.1-5.7
			c8.3-4.9,15.4-7.2,21.3-6.7c2.8,0.2,5.5,0.8,8.2,1.7c0.4,0.1,0.6,0.5,0.4,0.9s-0.5,0.6-0.9,0.4l0,0c-2.5-0.8-5.2-1.4-7.8-1.6
			c-5.5-0.5-12.4,1.7-20.4,6.5c-4.2,2.5-8.8,4.3-13.7,5.2C376.9,525,373.5,525.4,370,525.3z"/>
	</g>
	<g id="path38">
		<path class="st1" d="M373.9,510.6c-0.4,0-0.7-0.3-0.7-0.7c0-0.2,0.1-0.5,0.3-0.6c6.7-4.5,14-7.9,21.7-10.2
			c9-2.6,18.2-4.2,27.5-4.8c11.1-0.7,22.3-0.4,33.3,0.7c13.2,1.3,26.2,3.3,39.2,6c0.4,0.1,0.6,0.4,0.5,0.8s-0.4,0.6-0.8,0.5
			c-27.9-5.7-52.1-8-72.1-6.6c-9.2,0.5-18.3,2.1-27.2,4.7c-7.6,2.2-14.8,5.6-21.3,10C374.2,510.5,374,510.6,373.9,510.6z"/>
	</g>
	<g id="path40">
		<path class="st1" d="M477.6,518.8c-1.8,0-3.7-0.1-5.7-0.2c-0.4,0-0.7-0.4-0.6-0.7s0.4-0.7,0.7-0.6c11.6,0.9,21.1-0.9,29.1-5.7
			c3.6-2.2,7.4-4,11.5-5.4c3.1-1.1,6.5-1.5,9.8-1.3c2.8,0.1,5.6,0.7,8.2,1.7c0.4,0.1,0.5,0.5,0.4,0.9s-0.5,0.5-0.9,0.4
			c-2.5-1-5.1-1.5-7.8-1.6l0,0c-5.5-0.5-12.4,1.7-20.4,6.5c-4.2,2.5-8.9,4.2-13.7,5.1C484.7,518.5,481.2,518.8,477.6,518.8z"/>
	</g>
	<g id="path42">
		<path class="st1" d="M437.1,318.7c-0.5,0-0.9-0.2-1.2-0.5c-2.4-2.5-4.9-4-7.4-4.4c-2.6-0.4-5.3,0.2-7.5,1.7
			c-0.8,0.5-1.8,0.2-2.3-0.6c-0.5-0.8-0.2-1.8,0.6-2.3c2.9-1.9,6.4-2.7,9.8-2.1c3,0.6,5.9,2.1,8.1,4.3c2.5-2.2,5.6-3.6,8.8-4.3
			c3.5-0.5,7,0.2,10,2.1c0.8,0.5,0.9,1.6,0.4,2.3c-0.5,0.7-1.4,0.9-2.2,0.5c-5.1-3.1-10.4-2.2-16,2.8
			C437.9,318.6,437.5,318.7,437.1,318.7z"/>
	</g>
	<g id="path44">
		<path class="st1" d="M424.5,300.2L424.5,300.2c-0.5,0-0.9-0.2-1.2-0.5c-5.2-5.8-10.3-7-15.4-3.9c-0.8,0.5-1.8,0.2-2.3-0.5
			c-0.5-0.8-0.2-1.8,0.5-2.3l0,0c3-1.9,6.6-2.6,10.1-1.8c3.2,0.9,6.1,2.6,8.4,5c6-5.9,12.2-7,18.4-3.3c0.8,0.5,1.1,1.5,0.6,2.3
			s-1.5,1.1-2.3,0.6l0,0c-5.2-3.1-10.1-1.9-15.5,3.9C425.4,300,425,300.2,424.5,300.2z"/>
	</g>
</g>
<g id="g33">
	<g id="path66">
		<path class="st2" d="M154.5,478.7h15.6c4.7,0,8.1,1.3,10.3,4s2.9,6.4,2.1,11.2c-0.3,1.9-0.9,3.7-1.7,5.4c-0.8,1.7-1.9,3.2-3.2,4.5
			c-1.5,1.6-3.3,2.8-5.3,3.5c-2.4,0.8-5,1.1-7.6,1.1h-7l-1.7,10.7h-8L154.5,478.7L154.5,478.7z M161.6,485.1l-2.7,16.9h4.9
			c3.3,0,5.7-0.7,7.3-2s2.6-3.6,3.1-6.7c0.5-3,0.2-5.1-0.8-6.4c-1-1.2-3.1-1.9-6.2-1.9L161.6,485.1"/>
	</g>
	<g id="path68">
		<path class="st2" d="M191.7,468h8.1l-1.8,10.7h7.2c4.5,0,7.6,0.9,9.4,2.6c1.7,1.7,2.3,4.5,1.7,8.3l-3,18.8h-8.2l2.9-17.9
			c0.3-2,0.2-3.4-0.5-4.1c-0.6-0.8-2-1.1-4.1-1.1H197l-3.7,23.1h-8.1L191.7,468"/>
	</g>
	<g id="path70">
		<path class="st2" d="M225,478.7h15.6c4.7,0,8.1,1.3,10.3,4s2.9,6.4,2.1,11.2c-0.3,1.9-0.9,3.7-1.7,5.4c-0.8,1.7-1.9,3.2-3.2,4.5
			c-1.5,1.6-3.3,2.8-5.3,3.5c-2.4,0.8-5,1.1-7.6,1.1h-7l-1.6,10.7h-8.1L225,478.7L225,478.7z M232.1,485.1l-2.7,16.9h4.9
			c3.3,0,5.7-0.7,7.3-2s2.6-3.6,3.1-6.7c0.5-3,0.2-5.1-0.8-6.4c-1-1.2-3.1-1.9-6.2-1.9L232.1,485.1"/>
	</g>
</g>
<g id="g65">
	<g id="path72">
		<path class="st3" d="M266.8,459.4h15.6l6.9,37.5l19-37.5h15.5l-7.9,48.8h-10.4l7-38l-19.1,38h-11.3l-7.2-38.4l-5.1,38.4H259
			L266.8,459.4"/>
	</g>
	<g id="path74">
		<path class="st3" d="M342.6,500.3h7.9l4.5-28h9.8l-5.6,34.9c-0.8,4.8-2.5,8.3-5.1,10.6c-2.7,2.3-6.4,3.4-11.1,3.4h-19.2l1.2-7.3
			h17.5c1.6,0.1,3.2-0.4,4.5-1.3c1.2-0.9,2-2.3,2.1-3.8l0.1-0.6h-8.7c-5.5,0-9.3-1.1-11.4-3.2c-2-2.1-2.6-5.6-1.8-10.6l3.6-22.1h9.7
			l-3.5,21.4c-0.4,2.7-0.3,4.5,0.4,5.3C338.2,499.9,339.9,500.3,342.6,500.3"/>
	</g>
	<g id="path76">
		<path class="st3" d="M391.1,459.4h11.3l13.7,48.8h-11.8l-2.8-11.6h-22l-6.4,11.6h-11.3L391.1,459.4L391.1,459.4z M394.8,469.1
			l-10.4,18.8h15.1L394.8,469.1"/>
	</g>
	<g id="path78">
		<path class="st3" d="M453,508.3h-18.8c-5.7,0-9.9-1.6-12.5-4.9c-2.7-3.2-3.5-7.7-2.6-13.5c0.3-2.3,1-4.5,2-6.5s2.3-3.8,3.9-5.4
			c1.8-1.9,4-3.3,6.5-4.2c3-0.9,6-1.4,9.1-1.3h8.4l2.1-13h9.8L453,508.3z M444.5,500.6l3.3-20.4h-5.9c-4,0-7,0.8-8.9,2.4
			s-3.2,4.3-3.8,8c-0.6,3.6-0.3,6.2,1,7.7s3.8,2.3,7.5,2.3H444.5"/>
	</g>
	<g id="path80">
		<path class="st3" d="M467.4,472.4H505c5.5,0,9.2,1,11.3,3.1s2.7,5.4,2,10l-3.7,22.7h-9.9l3.5-21.5c0.4-2.7,0.3-4.4-0.4-5.2
			c-0.7-0.8-2.3-1.2-4.9-1.3h-5.5l-4.5,28h-10l4.5-28H476l-4.5,28h-9.9L467.4,472.4"/>
	</g>
	<g id="path82">
		<path class="st3" d="M540.1,468.3h-10.3l1.4-8.9h10.3L540.1,468.3z M533.6,508.2h-10.3l5.8-35.9h10.3L533.6,508.2"/>
	</g>
	<g id="path84">
		<path class="st3" d="M547.9,472.4h18.4c5.6,0,9.4,1,11.4,3s2.7,5.4,2,10.1l-3.7,22.7h-9.8l3.5-21.6c0.4-2.7,0.3-4.4-0.5-5.2
			c-0.7-0.8-2.4-1.2-5-1.2h-7.9l-4.5,28H542L547.9,472.4"/>
	</g>
</g>
<g id="layer1">
	<g id="path2996">
		<path class="st4" d="M767.1,455.7c-2,0-4-0.8-5.4-2.2l-45.1-45.1v39.7c0.2,4.2-3.1,7.7-7.3,7.9c-4.2,0.2-7.7-3.1-7.9-7.3
			c0-0.2,0-0.4,0-0.6V390c0-4.2,3.4-7.6,7.6-7.6c2,0,3.9,0.8,5.4,2.2l45.1,45.1V390c0.2-4.2,3.7-7.5,7.9-7.3c4,0.1,7.2,3.3,7.3,7.3
			v58.1C774.7,452.3,771.3,455.7,767.1,455.7L767.1,455.7z"/>
	</g>
	<g id="path2996-0">
		<path class="st4" d="M802.3,382.4l-2.1,3.9L784,415.7l-2.1,3.7l2.1,3.7l16.2,28.5l2.2,3.9h42.4l2.1-4.3l12.1-24.4l5.4-11h-12.3
			l-31,0.1c-4.2-0.2-7.7,3.1-7.9,7.3c-0.2,4.2,3.1,7.7,7.3,7.9c0.2,0,0.4,0,0.6,0l18.7-0.1l-4.6,9.2h-24l-11.9-21l12-21.7h25.5
			l6,12.2h15.3l-9.7-23.2l-2.1-4.3L802.3,382.4L802.3,382.4z"/>
	</g>
	<g id="path2996-0-5">
		<path class="st4" d="M879.5,382.3c-4.1,0.2-7.4,3.5-7.5,7.7v19.9h15.2V390C887.1,385.8,883.7,382.4,879.5,382.3z"/>
	</g>
	<g id="use3820">
		<g id="path2996-2">
			<path class="st4" d="M903.9,455.8c-4.2,0-7.6-3.4-7.6-7.6v-58.1c0.2-4.2,3.7-7.5,7.9-7.3c4,0.1,7.2,3.3,7.3,7.3v39.7l45.1-45.1
				c3-3,7.8-3,10.8,0c1.4,1.4,2.2,3.4,2.2,5.4v58.1c0.2,4.2-3.1,7.7-7.3,7.9c-4.2,0.2-7.7-3.1-7.9-7.3c0-0.2,0-0.4,0-0.6v-39.7
				l-45.1,45.1C907.9,455,906,455.8,903.9,455.8z"/>
		</g>
	</g>
	<g id="g3920">
		<g id="path2996-1">
			<path class="st4" d="M1044.3,455.7c-2,0-4-0.8-5.4-2.2l-58.2-57.9c-2.9-3.1-2.7-7.9,0.3-10.8c2.9-2.7,7.5-2.7,10.4,0l58.2,58
				c3,3,3,7.8,0,10.8C1048.2,454.9,1046.3,455.7,1044.3,455.7L1044.3,455.7z"/>
		</g>
		<g id="use3851">
			<g id="path2996-1-2">
				<path class="st4" d="M986.2,455.7c-4.2,0-7.6-3.4-7.6-7.6c0-2,0.8-3.9,2.2-5.4l58.2-58c3.1-2.9,7.9-2.7,10.8,0.4
					c2.7,2.9,2.7,7.5,0,10.4l-58.2,57.9C990.2,454.9,988.2,455.7,986.2,455.7z"/>
			</g>
		</g>
	</g>
	<g id="path2996-0-5-1">
		<path class="st4" d="M879.5,455.6c-4.1-0.2-7.4-3.6-7.5-7.7V416h15.2v31.9C887.1,452.1,883.7,455.5,879.5,455.6z"/>
	</g>
</g>
</svg>
