<svg xmlns="http://www.w3.org/2000/svg" viewBox="0 0 1200 800"><rect x="-23" y="-12.5" width="1236" height="824" fill="#F8F8F8"/><path d="M618.5 331.3c-4.2 0.1 0.8 2.2 6.3 3 1.5-1.2 2.9-2.4 4.1-3.5C625.5 331.6 622 331.6 618.5 331.3" fill="#D70751"/><path d="M641.1 325.7c2.5-3.5 4.3-7.2 5-11.1 -0.6 2.8-2.1 5.2-3.5 7.7 -7.9 4.9-0.7-2.9 0-5.9C634.1 327 641.4 322.7 641.1 325.7" fill="#D70751"/><path d="M649.4 304c0.5-7.6-1.5-5.2-2.2-2.3C648 302.2 648.6 307.1 649.4 304" fill="#D70751"/><path d="M602.6 200.6c2.2 0.4 4.9 0.7 4.5 1.2C609.5 201.3 610.1 200.8 602.6 200.6" fill="#D70751"/><polyline points="607.1 201.9 605.5 202.2 607 202.1 607.1 201.9 " fill="#D70751"/><path d="M677 306.9c0.3 6.8-2 10.1-4 15.9l-3.6 1.8c-3 5.8 0.3 3.7-1.8 8.3 -4.6 4.1-14.1 12.9-17.1 13.7 -2.2 0 1.5-2.6 2-3.6 -6.2 4.3-5 6.4-14.5 9l-0.3-0.6c-23.4 11-56-10.8-55.5-40.6 -0.2 1.9-0.7 1.4-1.2 2.2 -1.2-15.3 7.1-30.7 21.1-37 13.7-6.8 29.7-4 39.5 5.1 -5.4-7-16.1-14.5-28.8-13.8 -12.4 0.2-24.1 8.1-27.9 16.7 -6.4 4-7.1 15.5-9.9 17.6 -3.7 27.4 7 39.3 25.2 53.2 2.9 1.9 0.8 2.2 1.2 3.7 -6-2.8-11.6-7.1-16.1-12.3 2.4 3.5 5 7 8.4 9.7 -5.7-1.9-13.3-13.8-15.5-14.3 9.8 17.6 39.9 30.9 55.6 24.3 -7.3 0.3-16.5 0.1-24.7-2.9 -3.4-1.8-8.1-5.4-7.3-6.1 21.5 8 43.6 6.1 62.2-8.8 4.7-3.7 9.9-9.9 11.4-10 -2.2 3.4 0.4 1.6-1.3 4.6 4.7-7.6-2-3.1 4.9-13.1l2.6 3.5c-1-6.3 7.8-14 6.9-23.9 2-3 2.2 3.3 0.1 10.3 3-7.8 0.8-9 1.5-15.5 0.8 2.2 1.9 4.5 2.5 6.7 -1.9-7.5 2-12.7 2.9-17 -1-0.4-3 3.3-3.4-5.6 0.1-3.9 1.1-2 1.5-3 -0.8-0.4-2.7-3.4-3.9-9.1 0.9-1.3 2.3 3.5 3.5 3.6 -0.8-4.5-2.1-7.9-2.1-11.4 -3.5-7.3-1.2 1-4.1-3.1 -3.7-11.6 3.1-2.7 3.5-7.9 5.6 8.1 8.8 20.8 10.3 26 -1.1-6.4-2.9-12.6-5.2-18.5 1.7 0.7-2.7-13.1 2.2-4 -5.3-19.5-22.7-37.8-38.7-46.3 2 1.8 4.4 4 3.5 4.4 -8-4.7-6.6-5.1-7.7-7.1 -6.5-2.6-6.9 0.2-11.2 0 -12.2-6.5-14.6-5.8-25.8-9.9l0.5 2.4c-8.1-2.7-9.4 1-18.2 0 -0.5-0.4 2.8-1.5 5.6-1.9 -7.8 1-7.5-1.5-15.1 0.3 1.9-1.3 3.9-2.2 5.9-3.3 -6.4 0.4-15.3 3.7-12.5 0.7 -10.4 4.7-28.9 11.2-39.3 20.9l-0.3-2.2c-4.8 5.7-20.7 17.1-22 24.5l-1.3 0.3c-2.5 4.2-4.1 8.9-6 13.3 -3.2 5.5-4.7 2.1-4.3 3 -6.4 12.9-9.5 23.8-12.3 32.7 1.9 2.9 0 17.5 0.8 29.2 -3.2 57.8 40.5 113.9 88.4 126.8 7 2.5 17.4 2.4 26.3 2.7 -10.5-3-11.8-1.6-22-5.1 -7.3-3.5-9-7.4-14.2-11.9l2.1 3.6c-10.2-3.6-5.9-4.5-14.2-7.1l2.2-2.9c-3.3-0.3-8.8-5.6-10.3-8.5l-3.6 0.1c-4.3-5.4-6.7-9.2-6.5-12.2L546 409c-1.3-2.3-16-20.1-8.4-16 -1.4-1.3-3.3-2.1-5.3-5.8l1.5-1.8c-3.7-4.7-6.7-10.8-6.5-12.8 2 2.6 3.3 3.1 4.7 3.6 -9.3-23-9.8-1.3-16.8-23.4l1.5-0.1c-1.1-1.7-1.8-3.6-2.7-5.4l0.6-6.4c-6.7-7.7-1.9-32.7-0.9-46.5 0.7-5.6 5.6-11.5 9.3-20.9l-2.3-0.4c4.3-7.6 24.8-30.4 34.2-29.2 4.6-5.8-0.9 0-1.8-1.5 10.1-10.4 13.2-7.4 20-9.2 7.3-4.3-6.3 1.7-2.8-1.7 12.7-3.2 9-7.4 25.5-9 1.7 1-4 1.5-5.5 2.8 10.5-5.2 33.4-4 48.2 2.9 17.2 8 36.5 31.8 37.3 54.2l0.9 0.2c-0.4 8.9 1.4 19.2-1.8 28.6L677 306.9" fill="#D70751"/><path d="M572.7 337.1l-0.6 2.9c2.8 3.8 5 7.8 8.5 10.7C578 345.8 576.1 343.8 572.7 337.1" fill="#D70751"/><path d="M579.2 336.8c-1.5-1.6-2.3-3.6-3.3-5.5 0.9 3.4 2.8 6.3 4.6 9.3L579.2 336.8" fill="#D70751"/><path d="M694.7 311.7l-0.6 1.6c-1.1 8-3.6 16-7.3 23.4C690.9 328.9 693.6 320.4 694.7 311.7" fill="#D70751"/><path d="M603.4 198.6c2.8-1 7-0.6 10-1.3 -3.9 0.3-7.8 0.5-11.7 1L603.4 198.6" fill="#D70751"/><path d="M503.7 251.6c0.7 6.1-4.6 8.4 1.2 4.4C507.9 249.2 503.6 254.2 503.7 251.6" fill="#D70751"/><path d="M497 279.7c1.3-4 1.6-6.5 2.1-8.8C495.4 275.5 497.4 276.5 497 279.7" fill="#D70751"/><path d="M447.1 565.6c0 36.7 19.5 36.7 22.4 36.7 8.1 0 13.3-4.4 15.5-12.1l0.3 11.6c2.5-0.1 5-0.4 9-0.4 1.4 0 2.6 0 3.6 0.1 1 0 2.1 0.1 3.3 0.3 -2.1-4.2-3.6-13.5-3.6-33.9 0-19.8 0-53.3 1.7-63.5 -4.7 2.2-8.7 3.7-17.6 4.4 3.5 3.8 3.5 5.7 3.5 22.9 -2.5-0.8-5.6-1.7-10.9-1.7C450.9 530.2 447.1 550.5 447.1 565.6M484.9 550.3c-0.1 0.1-0.1 21.1-0.4 26.6 -0.3 4.4-0.7 13.9-10 13.9 -9.6 0-12-11.1-12.8-15.9 -0.9-5.3-0.9-9.8-0.9-11.7 0-6.3 0.4-23.7 15.1-23.7 4.4 0 6.9 1.3 8.9 2.3L484.9 550.3z"/><path d="M552.9 560.3c0-15.2-3-30.2-22.3-30.2 -26.6 0-26.6 29.4-26.6 35.7 0 26.4 11.9 36.9 31.8 36.9 8.9 0 13.2-1.3 15.5-2 -0.1-4.7 0.5-7.7 1.3-11.7 -2.7 1.7-6.3 3.9-14.1 3.9 -20.3 0-20.6-18.5-20.6-24.9h34.7L552.9 560.3M517.8 559c0.1-10.8 2.3-20.5 11.6-20.5 10.2 0 10.9 11.2 10.7 20.5H517.8z"/><path d="M557.9 580.1c0 9.6 0 15.1-1.6 19.3 5.3 2.1 12 3.3 19.9 3.3 5.1 0 19.8 0 27.8-16.3 3.8-7.6 5.1-17.7 5.1-25.4 0-4.7-0.5-15-4.3-21.5 -3.6-6.1-9.5-9.2-15.8-9.2 -12.5 0-16.2 10.4-18.1 15.8 0-6.6 0.1-29.8 1.2-41.7 -8.5 3.9-13.7 4.6-19.3 5.1 5.1 2.1 5.1 10.7 5.1 38.7V580.1M595.3 565.9c0 12.1-2.2 28.4-17.3 28.4 -2.1 0-4.7-0.4-6.4-0.8 -0.3-4.7-0.3-12.8-0.3-22.1 0-11.2 1.2-17.1 2.1-19.9 2.7-9.2 8.9-9.4 10-9.4C593.4 542.1 595.3 555.7 595.3 565.9z"/><path d="M634.2 601.9c-2.6-0.4-4.4-0.7-8.2-0.7 -4.2 0-7 0.3-10 0.7 1.3-2.5 1.8-3.7 2.2-12.1 0.5-11.6 0.7-42.6-0.3-49.1 -0.7-5-1.8-5.7-3.6-7 10.7-1 13.7-1.8 18.6-4.2 -1 5.7-1.2 8.6-1.2 17.3C631.4 591.7 631.3 596.5 634.2 601.9"/><path d="M640.1 581c0 8.2 2.5 16.4 9.8 19.9 3.3 1.4 6.5 1.4 7.6 1.4 12 0 16-8.9 18.5-14.3 -0.1 5.7 0 9.2 0.4 13.8 2.3-0.1 4.7-0.4 8.6-0.4 2.2 0 4.3 0.3 6.5 0.4 -1.4-2.2-2.2-3.5-2.6-8.6 -0.3-4.9-0.3-9.9-0.3-16.8l0.1-26.6c0-9.9-2.6-19.7-22.2-19.7 -12.9 0-20.5 3.9-24.2 5.9 1.6 2.9 2.9 5.3 4 10.9 5.1-4.4 11.7-6.8 18.5-6.8 10.8 0 10.8 7.2 10.8 17.3 -2.5-0.1-4.6-0.4-8.1-0.4C651 557.2 640.1 563.6 640.1 581M675.9 565c-0.3 8.2-0.4 13.9-2.6 18.5 -2.7 5.9-7.3 7.6-10.7 7.6 -7.8 0-9.5-6.5-9.5-12.9 0-12.2 10.9-13.2 15.9-13.2H675.9z"/><path d="M751 589c0.1 4.4 0.1 9.1 2 12.9 -2.9-0.3-4.6-0.7-9.9-0.7 -3.1 0-4.8 0.3-7.3 0.7 0.5-1.7 0.8-2.3 1-4.6 0.4-3 0.7-13 0.7-16.5v-14.1c0-6.1 0-15-0.4-18.1 -0.3-2.2-0.9-8.2-8.5-8.2 -7.4 0-9.9 5.5-10.8 9.9 -1 4.6-1 9.5-1 28.8 0.1 16.7 0.1 18.2 1.4 22.8 -2.2-0.3-4.9-0.5-8.9-0.5 -3.1 0-5.2 0.1-7.8 0.5 0.9-2.1 1.4-3.1 1.7-10.4 0.3-7.2 0.8-42.4-0.4-50.7 -0.6-5.1-2-6.3-3.4-7.6 10.6-0.5 13.9-2.2 17.2-3.9v13.8c1.6-4 4.8-13 17.9-13 16.3 0 16.4 11.9 16.5 19.7V589"/><polyline points="635.3 511 624.5 521.8 613.7 511 624.5 500.2 635.3 511 " fill="#D70751"/></svg>