<?xml version="1.0" encoding="utf-8"?>
<!-- Generator: Adobe Illustrator 21.1.0, SVG Export Plug-In . SVG Version: 6.00 Build 0)  -->
<svg version="1.1" id="Layer_1" xmlns="http://www.w3.org/2000/svg" xmlns:xlink="http://www.w3.org/1999/xlink" x="0px" y="0px"
	 viewBox="0 0 1200 800" style="enable-background:new 0 0 1200 800;" xml:space="preserve">
<style type="text/css">
	.st0{fill:#F8F8F8;}
	.st1{fill:#E95420;}
	.st2{fill:#FFFFFF;}
</style>
<rect x="-23" y="-12.5" class="st0" width="1236" height="824"/>
<g>
	<g>
		<g>
			<path d="M467.3,549.6c-2.6,0.7-6.1,1.4-10.4,2.1c-4.3,0.7-9.3,1.1-14.9,1.1c-4.9,0-9-0.7-12.4-2.1c-3.4-1.4-6.1-3.5-8.1-6.1
				c-2-2.6-3.5-5.7-4.4-9.3c-0.9-3.6-1.4-7.5-1.4-11.8v-35.8h11.4V521c0,7.8,1.2,13.3,3.7,16.7c2.5,3.4,6.6,5,12.4,5
				c1.2,0,2.5,0,3.8-0.1c1.3-0.1,2.5-0.2,3.7-0.3c1.1-0.1,2.2-0.2,3.1-0.4c0.9-0.1,1.6-0.3,2-0.4v-53.9h11.4V549.6L467.3,549.6z"/>
			<path d="M495.2,490.4c1.4-0.9,3.5-1.8,6.3-2.8c2.8-1,6.1-1.5,9.8-1.5c4.6,0,8.6,0.8,12.2,2.5c3.6,1.6,6.6,3.9,9,6.9
				c2.5,2.9,4.3,6.5,5.6,10.6c1.3,4.1,1.9,8.6,1.9,13.5c0,5.2-0.8,9.8-2.3,13.9c-1.5,4.1-3.7,7.6-6.4,10.5
				c-2.8,2.9-6.1,5.1-10.1,6.6c-3.9,1.6-8.3,2.3-13.3,2.3c-5.3,0-10-0.4-14.1-1.1c-4.1-0.7-7.4-1.5-10.1-2.2v-91.4l11.4-2V490.4z
				 M495.2,541.5c1.1,0.3,2.8,0.6,4.8,0.9c2.1,0.3,4.7,0.4,7.8,0.4c6.1,0,11-2,14.7-6.1c3.7-4,5.5-9.8,5.5-17.2c0-3.3-0.3-6.3-1-9.2
				c-0.7-2.9-1.7-5.3-3.2-7.4c-1.5-2.1-3.4-3.7-5.7-4.9c-2.3-1.2-5.1-1.8-8.4-1.8c-3.1,0-6,0.5-8.6,1.6c-2.6,1.1-4.6,2.2-6,3.3
				L495.2,541.5L495.2,541.5z"/>
			<path d="M603.6,549.6c-2.6,0.7-6.1,1.4-10.4,2.1c-4.3,0.7-9.3,1.1-14.9,1.1c-4.9,0-9-0.7-12.4-2.1c-3.4-1.4-6.1-3.5-8.1-6.1
				c-2-2.6-3.5-5.7-4.4-9.3c-0.9-3.6-1.4-7.5-1.4-11.8v-35.8h11.4V521c0,7.8,1.2,13.3,3.7,16.7c2.5,3.4,6.6,5,12.4,5
				c1.2,0,2.5,0,3.8-0.1c1.3-0.1,2.5-0.2,3.7-0.3c1.1-0.1,2.2-0.2,3.1-0.4c0.9-0.1,1.6-0.3,2-0.4v-53.9h11.4L603.6,549.6
				L603.6,549.6z"/>
			<path d="M620.1,489.4c2.6-0.7,6.1-1.4,10.4-2.1c4.3-0.7,9.3-1.1,15-1.1c5.1,0,9.3,0.7,12.6,2.1c3.4,1.4,6,3.4,8,6
				c2,2.6,3.4,5.7,4.2,9.3c0.8,3.6,1.2,7.6,1.2,11.9v35.8h-11.4V518c0-3.9-0.3-7.3-0.8-10.1c-0.5-2.8-1.4-5-2.6-6.7
				c-1.2-1.7-2.9-3-4.9-3.7c-2-0.8-4.6-1.2-7.6-1.2c-1.2,0-2.5,0-3.8,0.1c-1.3,0.1-2.6,0.2-3.7,0.3c-1.2,0.1-2.3,0.3-3.2,0.4
				c-0.9,0.2-1.6,0.3-2,0.4v53.9h-11.4L620.1,489.4L620.1,489.4z"/>
			<path d="M698,487.6h24.2v9.6H698v29.4c0,3.2,0.2,5.8,0.7,7.9c0.5,2.1,1.2,3.7,2.2,4.9c1,1.2,2.2,2,3.7,2.5
				c1.5,0.5,3.2,0.7,5.2,0.7c3.5,0,6.3-0.4,8.3-1.2c2-0.8,3.4-1.3,4.2-1.7l2.5,9.3c-1.1,0.6-3.2,1.3-6.1,2.2
				c-2.9,0.9-6.2,1.3-9.9,1.3c-4.3,0-7.9-0.6-10.7-1.7c-2.8-1.1-5.1-2.8-6.8-5c-1.7-2.2-2.9-4.9-3.6-8.2c-0.7-3.2-1-7-1-11.2v-56.9
				l11.4-2L698,487.6L698,487.6z"/>
			<path d="M784.2,549.6c-2.6,0.7-6.1,1.4-10.4,2.1c-4.3,0.7-9.3,1.1-14.9,1.1c-4.9,0-9-0.7-12.4-2.1c-3.4-1.4-6.1-3.5-8.1-6.1
				c-2-2.6-3.5-5.7-4.4-9.3c-0.9-3.6-1.4-7.5-1.4-11.8v-35.8h11.4V521c0,7.8,1.2,13.3,3.7,16.7c2.5,3.4,6.6,5,12.4,5
				c1.2,0,2.5,0,3.8-0.1c1.3-0.1,2.5-0.2,3.7-0.3c1.1-0.1,2.2-0.2,3.1-0.4c0.9-0.1,1.6-0.3,2-0.4v-53.9h11.4V549.6L784.2,549.6z"/>
		</g>
	</g>
	<g>
		<path class="st1" d="M700.3,343.8c0,53.4-43.3,96.7-96.7,96.7c-53.4,0-96.7-43.3-96.7-96.7c0-53.4,43.3-96.7,96.7-96.7
			C657,247.1,700.3,290.4,700.3,343.8z"/>
		<path class="st2" d="M553.4,343.8c0,6.9-5.6,12.4-12.4,12.4c-6.9,0-12.4-5.6-12.4-12.4c0-6.9,5.6-12.4,12.4-12.4
			C547.9,331.4,553.4,336.9,553.4,343.8z M624.2,404.2c3.4,5.9,11,8,17,4.5c5.9-3.4,8-11,4.5-17c-3.4-5.9-11-8-17-4.5
			C622.8,390.7,620.7,398.3,624.2,404.2z M645.7,295.8c3.4-5.9,1.4-13.5-4.5-17c-5.9-3.4-13.5-1.4-17,4.5s-1.4,13.5,4.5,17
			C634.7,303.8,642.3,301.7,645.7,295.8z M603.6,308.4c18.5,0,33.7,14.2,35.3,32.3l18-0.3c-0.9-13.5-6.7-25.6-15.7-34.5
			c-4.8,1.8-10.3,1.6-15.1-1.2c-4.8-2.8-7.7-7.4-8.5-12.5c-4.5-1.2-9.2-1.9-14-1.9c-8.5,0-16.6,2-23.7,5.5l8.8,15.7
			C593.2,309.5,598.3,308.4,603.6,308.4z M568.2,343.8c0-12,6-22.6,15.1-29l-9.2-15.4c-10.7,7.1-18.7,18-22,30.8
			c4,3.2,6.5,8.1,6.5,13.6c0,5.5-2.5,10.4-6.5,13.6c3.4,12.8,11.3,23.7,22,30.8l9.2-15.4C574.1,366.4,568.2,355.8,568.2,343.8z
			 M603.6,379.3c-5.3,0-10.4-1.2-14.9-3.3l-8.8,15.7c7.1,3.5,15.2,5.5,23.7,5.5c4.9,0,9.6-0.6,14-1.9c0.8-5.1,3.8-9.7,8.5-12.5
			c4.8-2.8,10.3-3,15.1-1.2c9-8.9,14.8-21,15.7-34.5l-18-0.3C637.3,365.1,622.1,379.3,603.6,379.3z"/>
	</g>
</g>
</svg>
